<?xml version="1.0" encoding="utf-8"?>
<!-- Generator: Adobe Illustrator 24.0.1, SVG Export Plug-In . SVG Version: 6.00 Build 0)  -->
<svg version="1.1"
	 id="BD_XXX_District_locator_map" inkscape:version="0.48.4 r9939" sodipodi:docname="Bangladesh_divisions_english bn.svg" xmlns:cc="http://creativecommons.org/ns#" xmlns:dc="http://purl.org/dc/elements/1.1/" xmlns:inkscape="http://www.inkscape.org/namespaces/inkscape" xmlns:rdf="http://www.w3.org/1999/02/22-rdf-syntax-ns#" xmlns:sodipodi="http://sodipodi.sourceforge.net/DTD/sodipodi-0.dtd" xmlns:svg="http://www.w3.org/2000/svg"
	 xmlns="http://www.w3.org/2000/svg" xmlns:xlink="http://www.w3.org/1999/xlink" x="0px" y="0px" viewBox="0 0 1550.2 2149.6"
	 style="enable-background:new 0 0 1550.2 2149.6;" xml:space="preserve">
<style type="text/css">
	.st0{opacity:0.4;}
	.st1{fill:#4DAF4A;stroke:#FFFFFF;stroke-width:2;}
	.st2{fill:#4DAF4A;stroke:#FFFFFF;stroke-width:2;stroke-linecap:round;stroke-linejoin:round;}
	.st3{fill:none;stroke:#000000;}
	.st4{opacity:0.5;}
	.st5{fill:#01796F;stroke:#FFFFFF;stroke-width:2;}
	.st6{fill:#67923D;stroke:#FFFFFF;stroke-width:2;}
	.st7{fill:#67923D;stroke:#FFFFFF;stroke-width:0.75;}
	.st8{fill:#67923D;stroke:#FFFFFF;stroke-width:0.5;}
	.st9{fill:#00753B;stroke:#FFFFFF;stroke-width:2;}
	.st10{fill:#67923D;stroke:#FFFFFF;stroke-miterlimit:10;}
	.st11{fill:#00753B;stroke:#FFFFFF;stroke-width:3;}
	.st12{fill:#4DAF4A;stroke:#FFFFFF;stroke-width:3;}
	.st13{fill:none;stroke:#FFFFFF;stroke-width:8;}
	.st14{fill-opacity:0;stroke:#000000;}
	.st15{fill:none;stroke:#024C43;stroke-width:3.125;stroke-opacity:0.9922;stroke-dasharray:25,6.25,3.125,6.25;}
</style>
<sodipodi:namedview  bordercolor="#666666" borderopacity="1" gridtolerance="10" guidetolerance="10" id="namedview3387" inkscape:current-layer="BD_XXX_District_locator_map" inkscape:cx="775.12097" inkscape:cy="1074.802" inkscape:guide-bbox="true" inkscape:pageopacity="0" inkscape:pageshadow="2" inkscape:window-height="837" inkscape:window-maximized="1" inkscape:window-width="1600" inkscape:window-x="-8" inkscape:window-y="-8" inkscape:zoom="0.2873349" objecttolerance="10" pagecolor="#ffffff" showgrid="false" showguides="true">
	</sodipodi:namedview>
<g id="Rongpur" class="st0">
	<path id="path4167" class="st1" d="M254.1,132.3l6.4-6.3l6.4,1.3l6.4,5l-5.1,13.8l7.6,2.5l6.4,7.5l7.6-1.3l-1.3-8.8l-6.4-3.8
		l7.6-8.8l14,1.3l6.4,8.8l5.1,6.3l3.8,6.3l2.5-3.8h11.4l2.5,2.5l7.6-3.8v8.8l1.3,15l8.9,6.3l8.9,5l2.5,6.3l-1.3,7.5l-2.5,18.8
		l3.8,12.5l2.5,13.8l10.2,8.8l11.4,7.5l8.9,7.5l-3.8,10l-3.8,8.8l-3.8,5l-7.6-8.8L366,295l1.3,13.8l-10.2-10l-6.4,12.5l-20.3-5
		l-14,3.8l5.1,12.5l-6.4,7.5l-3.8,6.3l-11.4-1.3l-10.2-8.8h-6.4v-13.8l-10.2-2.5v-30l-5.1-6.3l-5.1-8.8l-14-3.8l1.3-6.3l-3.8-2.5
		v-10l-1.3-3.8l5.1-6.3l-3.8,6.3l7.6-11.3l7.6-3.8v-21.3l3.8-7.5v-5l-1.3-17.5l3.8-7.5l-14-15L254.1,132.3L254.1,132.3L254.1,132.3z
		"/>
	<path id="path2169" class="st2" d="M115.6,78.5l-2.5-8.8l-2.5-6.3l6.4-8.8l5.1-11.3l5.1-15l10.2-15l2.5,16.3l1.3,8.8l10.2,10
		l10.2-2.5l2.5,8.8l10.2,2.5l1.3,7.5l10.2,3.8l1.3,5l10.2,2.5l6.4-7.5l3.8,10l5.1,6.3l7.6,5l2.5,5l6.4-2.5l3.8,3.8l-3.8,8.8l3.8,3.8
		l5.1,3.8v2.5l10.2-1.3v5l2.5,5v6.3l6.4,5l-1.3,11.3l5.1,8.8l6.4,8.8l-2.5,8.8v12.5v11.3l-3.8,10l2.5,12.5l-6.4,8.8l-8.9,12.5
		l-10.2-2.5l-14-1.3l-5.1-10l-6.4-5l7.6-13.8l-5.1-10l-6.4-7.5l-10.2-3.8l-5.1-5l-3.8-7.5l-6.4,2.5c0,0-1.6-1.3-5.1-2.5
		s-8.9-2.5-8.9-2.5l-6.4-2.5l-6.4,5l-10.2-2.5l-8.9-3.8l-7.6,5l-1.3,6.3c0,0-4.1-0.6-8.9-2.5s-10.2-5-10.2-5l-2.5-3.8l8.9-5l5.1-6.3
		l-3.8-7.5V131l14-1.3l5.1-5l5.1-7.5l11.4-3.8l2.5-8.8l6.4,10l6.4-3.8l5.1-8.8l-5.1-6.3l-5.1-7.5v-8.8l-8.9-7.5l-11.4,2.5l-6.4-10
		l-6.4,5l-7.6-1.3L115.6,78.5z"/>
	<path id="path2192" class="st1" d="M48.2,317.5l-6.4-11.3l-7.6-10l5.1-11.3l-12.7-2.5l3.8-20l8.9-6.3l-1.3-7.5l5.1-10l15.3-10
		l5.1-13.8l-11.4-6.3l6.4-11.3l2.5-11.3l14-5v-12.5l19.1,2.5l14-3.8l19.1,12.5l3.8-10l13-2.7l11.2,3.9l10.2-1.3l25.4,6.3l10.2,11.3
		l8.9,3.8l12.7,15l-8.9,12.5l2.5,8.8l-6.4,6.3l-2.5,10h-8.9l-6.4-10l-3.8,7.5h-7.6l-3.8,13.8l5.1,5l-6.4,1.3l-7.6,12.5l-2.5,7.5
		l-3.8,7.5l5.1,6.3l-7.6,1.3h-5.1V290l-16.5,1.3v10h-6.4l-1.3,12.5l7.6,3.8l-5.1,5v11.3l6.4,3.8l7.6,6.3l-1.3,8.8l-8.9,1.3l-7.6-7.5
		l-6.4-3.8v-5l-8.9-8.8h-7.6l-2.5-8.8l-14-7.5l1.3-6.3l-1.3-3.8l-11.4,3.8l-7.6,6.3l-6.4-7.5L48.2,317.5z"/>
	<path id="path2175" class="st1" d="M340.5,136l-3.8-10l-10.2,7.5l-5.1-7.5l7.6-6.3l-3.8-6.3l-6.4-1.3l-3.8,3.8l-12.7-6.3l-2.5-11.3
		l12.7-18.8L324,76v7.5l3.8,2.5l11.4,3.8l7.6,7.5l16.5-1.3l3.8,8.8l-7.6,1.3l6.4,7.5l-6.4,7.5h15.3l5.1,8.8l-1.3,3.8H371l-7.6-7.5
		v11.3l6.4,7.5l10.2,11.3l1.3,7.5l-3.8,3.8l11.4,22.5l20.3,3.8l10.2,10l1.3,7.5l-5.1,2.5l1.3,2.5l8.9,1.3l10.2,5l8.9,10l16.5,3.8
		l7.6-13.8l5.1,1.3l1.3,6.3l6.4,2.5l5.1,5l5.1-3.8l-2.5,23.8l10.2,1.3l14,15l2.5-1.3v7.5h11.4l1.3,3.8l-11.4,15l-6.4,1.3l1.3,15
		l-14,10l-3.8-1.3l-1.3-11.3l-3.8,1.3l-2.5,6.3l-10.2-1.3l-7.6-2.5l-1.3,2.5l-25.4-15c0,0,6.4-7.5,0-8.8c-6.4-1.3-12.7-5-12.7-5
		v-8.8l-7.6,1.3l-11.4-8.8l-12.7-5l-7.6-8.8l-16.3-5.3l-7.8-12.2l-6.4-28.8l3.8-18.8v-7.5l-20.3-12.5l1.3-25l10.2-3.8l-6.4-8.8
		L340.5,136z"/>
	<path id="path2174" class="st1" d="M216,224.9l-6.4,6.3l-2.5,10l-8.9,2.5l-7.6-11.3l-2.5,8.8h-8.9l-3.8,13.8l6.4,3.8v3.8l-7.6-1.3
		l-11.4,25l3.8,6.3l-2.5,3.8l-10.2,1.3l-1.3-7.5l-3.8,2.5l-14-2.5l2.5,12.5l-6.4-2.5l-1.3,11.3l6.4,3.8l-3.8,8.8l1.3,8.8l12.7,10v10
		l5.1,3.8l-1.3,11.3l-5.1,2.5v10l7.6,5h11.4v10l8.9,6.3l3.8,8.8l15.3,1.3l8.9-2.5l2.5,6.3l11.4,1.3v5l17.8,2.5l5.1-5l6.4-3.8
		c0,0,15.3,6.3,11.4,1.3c-3.8-5-3.8-13.8-3.8-13.8l7.6,7.5l7.6-7.5v12.5l6.4,2.5l5.1,11.3l-5.1,12.5l-6.4,3.8l7.6,3.8l1.3,10
		l16.5,16.3l3.8-6.3l3.8,5v5l31.8,2.5l3.8,5l-1.3,8.8l14,7.5l12.7-2.5l6.4,10l17.8-2.5l38.1,8.8l10.2-5v-8.8l-10.2-11.3l-1.3-11.3
		l-14-11.3l2.5-5l-3.8-2.5h-6.4l-1.3-7.5h-11.4l-7.6-8.8l3.8-2.5l-12.7-7.5l-8.9-35l-5.1-12.5l-19.1-3.8l-8.9-20l-17.8-11.3
		l-2.5-17.5l-14-3.8l-5.1-5l-7.6-1.3l3.8-13.8h-12.7l-1.3-30l-10.2-17.5l-11.4-2.5l-3.8-10v-11.3l-21.6-3.8L216,224.9z"/>
	<path id="path2176" class="st1" d="M423.2,490.2v-10l-16.5-11.3l3.8-6.3l-10.2-2.5v-5l-12.7-1.3l-10.2-8.8l6.4-1.3l-16.5-8.8
		l-10.2-46.3l-20.3-5l-8.9-20l-15.3-8.8l-5.1-20l12.7-12.5l-3.8-12.5l14-3.8L352,310l3.8-10l12.7,10l-1.3-15l12.7-12.5l5.1,10
		l15.3-22.5l19.1,12.5h8.9v8.8l14,5l5.1,11.3l20.3,12.5l2.5-5l15.3,7.5l3.8,3.8L488,330l11.4,2.5l3.8,5l-11.4,5l10.2,3.8l3.8,5v8.8
		l-3.8,2.5v6.3l7.6,3.8l1.3,3.8l-5.1,3.8l-10.2,7.5l3.8,6.3l-6.4,3.8l-3.8-6.3l-7.6-2.5l-1.3,3.8l-10.2-1.3l-5.1,6.3l12.7,11.3
		l-1.3,8.8l7.6,5l-8.9,11.3l-8.9,1.3l-8.9,10l-12.7,23.8v2.5l3.8,6.3l-6.4,2.5l14,10L423.2,490.2L423.2,490.2L423.2,490.2z"/>
	<path id="path3151" class="st1" d="M504.5,358.8V350l-11.4-10l11.4-1.3l-7.6-7.5H488l-3.8-11.3l8.9-7.5v8.8l6.4,5l11.4-10l1.3-16.3
		l16.5-13.8l-1.3-5l-11.4-1.3v-8.8l-5.1,3.8l-12.7-17.5H488l3.8-22.5h17.8l2.5,5l-1.3,6.3l7.6,7.5l2.5-5l6.4-2.5v-6.3l-6.4-1.3
		l-1.3-11.3l14-10h11.4v-6.3l-3.8-2.5l-1.3-10l-3.8,1.3l-2.5,5l-2.5,3.8l-5.1-2.5l5.1-8.8l-2.5-5l-2.5-5v-6.3h5.1l7.6-8.8l2.5-6.3
		l-1.3-7.5l3.8-3.8h11.4l7.6,6.3l-5.1,5l-1.3,6.3l-1.3,2.5l3.8,7.5l5.1-3.8h14l3.8,11.3l12.7,21.3l-5.1,2.5v7.5l7.6,2.5l6.4,18.8
		h12.7l-12.7,11.3l12.7,3.8l8.9,3.8v3.8l-6.4,6.3l-11.4,10l1.3,13.8l-6.4,8.8l5.1,8.8l5.1,8.8l-7.6,7.5v7.5l6.4,1.3l-2.5,10
		l11.4,8.8v32.5l-6.4,12.5l-1.3,20l-2.5,11.3l-3.8,3.8l-1.3,13.8l-6.4-3.8l-8.9-5v7.5l5.1,3.8l-11.4,8.8l-5.1-1.3v-5l-2.5,2.5
		l-10.2-1.3v-6.3l5.1-2.5l-5.1-1.3v-6.3l3.8-10l-15.3-3.8l8.9-3.8l-5.1-7.5v-5l-11.4-10h-8.9l-2.5,6.3l-3.8-10l-15.3-7.5l-5.1-13.8
		l-6.4-6.3L504.5,358.8L504.5,358.8z"/>
	<path id="path2177" class="st1" d="M400.3,510.2l21.6,7.5l10.2-5l2.5-8.8l-10.2-13.8l29.2,1.3l-11.4-11.3l8.9-1.3l-6.4-10
		l17.8-27.5l6.4-7.5l6.4,2.5l10.2-13.8l-8.9-5l1.3-11.3l-11.4-8.8l3.8-6.3l10.2-3.8l10.2,2.5l1.3,10l10.2-5l-6.4-8.8l15.3-8.8
		l10.2,13.8l8.9,6.3l5.1,11.3l3.8-7.5h7.6l10.2,8.8v5l6.4,6.3l-12.7,6.3l19.1,3.8l-3.8,3.8v11.3l2.5,2.5l-3.8,1.3v6.3l10.2,1.3
		l5.1-5v6.3l3.8,2.5v20l6.4,13.8l1.3,8.8l-8.9,12.5l-6.4-1.3l-8.9,7.5l-1.3,11.3l-8.9,12.5l-7.6,8.8v6.3l3.8,6.3l5.1,1.3l-6.4,3.8
		l-2.5,7.5l-2.5-5l-14-1.3l-11.4,3.8l-2.5,6.3h-6.4l-2.5-5l-19.1-3.8l-5.1-6.3l-3.8-1.3l-3.8,5l-6.4-3.8l-3.8-1.3l-2.5,5l-10.2-1.3
		l-3.8-12.5H446l-3.8-3.8l-14-1.3l-5.1,6.3l-7.6-6.3v-3.8l-10.2-13.8h-3.8l-5.1-6.3l-2.5-6.3L400.3,510.2z"/>
	<path id="path3149" class="st3" d="M503.2,367.5L503.2,367.5z"/>
</g>
<g id="Rajshahi" class="st4">
	<path id="path5240" class="st5" d="M332.9,910.6v-8.8l5.1-8.8l6.4,6.3l25.4-5l12.7-10l2.5-10l7.6,2.5l11.4-6.3l7.6-22.5l7.6,3.8
		l1.3-10l10.2-10l26.7,6.3l8.9,3.8v12.5l3.8,7.5l8.9-5l7.6,2.5l-5.1,3.8v10l5.1,3.8h11.4l5.1-6.3l5.1,8.8l-7.6,6.3h6.4v7.5l-7.6,3.8
		l2.5,8.8l11.4,1.3l16.5,13.8l11.4-1.3l16.5,13.8l8.9,12.5l-12.7,2.5v7.5L549,957l1.3,11.3l6.4,7.5l10.2-2.5l5.1,15h-5.1L556.6,977
		l3.8,15l15.3,2.5l11.4,7.5l-11.4,3.8l-6.4,3.8l-15.3-1.3l-15.3-6.3l-17.8,5l-11.4,5l-30.5-18.8l-5.1-12.5l-15.3-16.3h-6.4l5.1,12.5
		l-6.4,7.5l-14-2.5l-8.9-12.5l-12.7-13.8l-5.1-2.5h-17.8l-7.6-5h-14l-7.6-1.3l-10.2,8.8v-6.3l-10.2-3.8l-5.1-10l2.5-16.3
		L332.9,910.6L332.9,910.6z"/>
	<path id="path2180" class="st5" d="M170.2,690.4l-7.6-6.3l-8.9-2.5l1.3-5l17.8,3.8l-3.8-7.5h-11.4l-11.4-5l6.4-7.5l-11.4-2.5
		l-5.1,5l-10.2-5l2.5-8.8l10.2,3.8l2.5-5l14,1.3l3.8-5l10.2-16.3l-12.7-12.5l-3.8,11.3l-7.6,1.3l2.5-12.5l-7.6-8.8l-7.6-1.3
		l-3.8,8.8l-15.3-1.3l-2.5,10h-3.8l-1.3,5h8.9v6.3l-5.1,7.5l-2.5-7.5l0,0l-6.4,6.3l-2.5-6.3l-7.6-5l-3.8,7.5l3.8-12.5l-12.7-8.8
		l1.3-7.5l-8.9-1.3l-1.3,3.8H58.4l-10.2,6.3l-1.3,6.3l6.4,6.3l2.5,17.5l-22.9,15l2.5,10l-7.6-1.3l-3.8,3.8l-1.3,10l-1.3,8.8
		l-1.3,6.3l-6.4-1.3l-6.4,3.8l3.8,3.8l6.4,5l-1.3,5l14,8.8l-1.3,7.5l7.6,7.5L33,750.5l5.1,10l6.4,7.5h8.9l7.6,7.5l5.1,6.3l8.9-1.3
		l31.8,10h12.7v-6.3h-1.3l-6.4-10v-17.5l-6.4-7.5V738l15.3-7.5l10.2-1.3l0,0l14-8.8l-1.3-10h26.7l2.5-2.5l-5.1-3.8l-5.1,2.5l-8.9-5
		L170.2,690.4z"/>
	<path id="path2184" class="st5" d="M321.5,684.1l-1.3-26.3l-5.1-3.8l10.2-8.8h7.6l3.8,8.8l1.3-8.8h3.8v7.5l8.9-11.3l6.4,6.3
		l15.3-12.5l-12.7-12.5l6.4,2.5l1.3-18.8l7.6,3.8l1.3,7.5l14,1.3v5h10.2l-1.3-7.5l-6.4-3.8v-7.5l6.4,1.3l7.6-20l8.9,5l-3.8-7.5h8.9
		l-6.4-8.8l12.7-7.5l1.3-8.8l-5.1-1.3l5.1-5l14,2.5l8.9,5l2.5,11.3l11.4,2.5l2.5-6.3l11.4,6.3l3.8-7.5l10.2,10l15.3,2.5l6.4,6.3h5.1
		l3.8-8.8l21.6-2.5l3.8,6.3l3.8,1.3l-3.8,10h5.1l2.5,8.8l-5.1,7.5l5.1,3.8l-2.5,6.3l5.1,7.5l1.3,8.8l-6.4,1.3v11.3l10.2,11.3h8.9
		l3.8,6.3l-2.5,3.8h-17.8l-2.5,3.8v7.5h-2.5v8.8l-12.7,17.5l-8.9-8.8l-6.4,3.8l-5.1-5v6.3l-5.1,5l-1.3,10l5.1,2.5l-2.5,6.3l1.3,2.5
		l7.6-1.3l7.6,6.3l-5.1,6.3l8.9,5l-5.1,6.3h-7.6l-1.3,5l-7.6-2.5l-5.1-7.5l-1.3,6.3h-7.6l-3.8-5l-10.2,5l-8.9,1.3l-10.2-6.3
		l-25.4,1.3v-6.3l-6.4-8.8h-3.8l-7.6-7.5l-10.2-1.3l-5.1,3.8l2.5,10l-1.3,3.8l-14-11.3v-5l5.1-3.8l-2.5-6.3l-7.6,6.3l-3.8-3.8
		l-6.4,13.8l-8.9-17.5l6.4-7.5l-1.3-18.8l-6.4,6.3l-12.7-1.3l1.3-6.3l-11.4-18.8l-8.9,10l-3.8-5L321.5,684.1z"/>
	<path id="path3179" class="st5" d="M288.4,908.1v-6.3l12.7-1.3l-2.5-6.3l-16.5-2.5l5.1-5l-5.1-2.5l7.6-3.8l-5.1-7.5l20.3-7.5
		l-6.4-10v-7.5l-12.7,1.3l-5.1-12.5l16.5-11.3l-2.5-40l12.7-8.8l-8.9-8.8H291l11.4-7.5l12.7,2.5l5.1-10l-1.3-5h8.9l-1.3,6.3l7.6,6.3
		l10.2,1.3l8.9,1.3l11.4-7.5l1.3-13.8h-5.1v-11.3l10.2-12.5l8.9,15l5.1-12.5l5.1,2.5l7.6-7.5l3.8,5l-7.6,8.8l15.3,11.3l1.3-5
		l-5.1-6.3l6.4-6.3l11.4,2.5l7.6,6.3l7.6,6.3l3.8,8.8l3.8,3.8l-21.6,28.8l-12.7,15l7.6,3.8l2.5,7.5l6.4,3.8l1.3,23.8l-10.2,10v6.3
		l-6.4-1.3l-11.4,22.5l-8.9,5H385l-3.8,8.8l-11.4,8.8l-22.9,5l-5.1-5l-3.8-1.3l-5.1,8.8v8.8l-15.3-1.3l-12.7-3.8l-5.1,6.3
		L288.4,908.1z"/>
	<path id="path3168" class="st5" d="M115.6,791.8l3.8-8.8l-8.9-11.3l1.3-16.3l-7.6-8.8l1.3-10l25.4-7.5l15.3-7.5l-1.3-10l24.1,1.3
		l3.8-3.8l-3.8-6.3l-6.4,3.8l-8.9-5l16.5-8.8l19.1,6.3l1.3,10l7.6,2.5l7.6-8.8l6.4,5l-1.3,13.8l11.4,5l28-15l-1.3-2.5l14,5l7.6,6.3
		l10.2-1.3l8.9,8.8l10.2-3.8v12.5l1.3,6.3l10.2,5h6.4v7.5l-2.5,6.3l-14,1.3l-7.6,6.3h5.1l7.6,7.5l-11.4,8.8l1.3,6.3l0,0l1.3,33.8
		l-12.7,8.8l-2.5,3.8l0,0l6.4,12.5l10.2-2.5l1.3,7.5l2.5,6.3l3.8,3.8l-16.5,6.3l-5.1,5l6.4,5l-7.6,3.8l5.1,3.8l-5.1,3.8l14,2.5
		l2.5,5l-10.2,2.5l-1.3,5h-12.7l-17.8-7.5l-11.4-10l-5.1-2.5l-8.9-2.5v-5l10.2-2.5l1.3-26.3l-8.9-18.8l-10.2-1.3l-5.1,7.5l-19.1-1.3
		l-11.4-6.3l-8.9,7.5l-11.4-6.3l-11.4-11.3l-5.1,1.3l-1.3-6.3l-11.4-2.5L127,808L115.6,791.8z"/>
	<path id="path4248" class="st5" d="M428.2,829.3v-18.8l-6.4-5v-5L413,793l34.3-41.3l-2.5-5h22.9l8.9,7.5h8.9l11.4-6.3l10.2,5
		l2.5-8.8l5.1,10l8.9,2.5v-6.3h6.4l6.4-5l-10.2-6.3l5.1-5l-8.9-7.5l-7.6,1.3l-2.5-1.3l6.4-6.3l-6.4-3.8l3.8-13.8v-8.8l6.4,6.3
		l7.6-2.5l7.6,7.5l16.5-17.5l-2.5-7.5l2.5-12.5l15.3,1.3l5.1,6.3l3.8,3.8l2.5-5h3.8l6.4,6.3l3.8,1.3l1.3,7.5l-7.6,1.3l-1.3,3.8
		l7.6,6.3v18.8l-2.5,10h-7.6l6.4,7.5l1.3,8.8l-6.4,3.8l-1.3,7.5l-5.1-1.3l-6.4,7.5l6.4,8.8v10l-8.9,6.3l-3.8,6.3l17.8,18.8l-7.6,7.5
		l1.3,5l8.9,6.3l6.4,10l-2.5,36.3l3.8,5l-3.8,3.8v5l3.8,1.3l5.1,5v3.8l3.8,3.8l-1.3,15l-8.9,17.5l-16.5,6.3H568l-10.2-12.5
		l-15.3-11.3h-11.4l-16.5-13.8l-12.7-2.5l-1.3-6.3l6.4-2.5l1.3-8.8l-5.1-2.5l3.8-2.5v-5l-5.1-6.3l-3.8,2.5l-11.4,2.5l-3.8-2.5v-8.8
		l5.1-2.5c0,0,0-7.5-5.1-7.5c-5.1,0-6.4,0-6.4,0l-3.8,6.3h-2.5l-2.5-7.5v-10l-11.4-7.5l-10.2-2.5L428.2,829.3z"/>
	<path id="path2179" class="st5" d="M322.8,646.6v-8.8l12.7-1.3l-2.5-22.5l5.1-1.3l-1.3-26.3l-7.6-12.5h-2.5l-5.1,6.3l-6.4,1.3
		l-6.4-11.3v-5h5.1l3.8-20h-14l7.6-2.5l-7.6-10l5.1-6.3l-10.2-1.3h-5.1l-16.5-10l-3.8,8.8l-8.9,6.3h-2.5l-6.4-7.5l-6.4,3.8
		l-15.3-8.8l-8.9-2.5l-2.5,5l-24.1-1.3l-6.4,12.5h-6.4V524l-3.8-3.8l-3.8,5l-5.1-6.3h-7.6l-6.4-5l-2.5,5l-8.9,3.8l0,0l-1.3,10
		l10.2,5v3.8l-8.9,3.8v17.5l2.5,3.8l-6.4-1.3l-1.3,11.3l6.4,5l-5.1,6.3l-6.4,3.8v7.5l-6.4,1.3v5h8.9l7.6,7.5l1.3,13.8h3.8v-5l1.3-5
		h5.1l8.9,8.8v5l-8.9,15l-6.4,2.5l-10.2,1.3l-1.3,3.8l-11.4-2.5l-3.8,7.5l8.9,5l5.1-2.5H155l-5.1,7.5l6.4,2.5l12.7,1.3l3.8,7.5
		l-6.4,1.3l-6.4-2.5H155l-1.3,3.8l8.9,2.5l7.6,3.8l1.3,3.8l6.4,3.8l14,3.8v8.8l6.4,2.5l7.6-10l6.4,8.8l-1.3,13.8l5.1,5l1.3-2.5h6.4
		l7.6-3.8l17.8-12.5h5.1l1.3,5l8.9-1.3l0,0l6.4,7.5l2.5-2.5h8.9l7.6,8.8l1.3-2.5l7.6-1.3l3.8,5v12.5l6.4,5l6.4,1.3l14,1.3v7.5
		l2.5,2.5h5.1l1.3-3.8v5h7.6l2.5,7.5l5.1-6.3l3.8,1.3l8.9-7.5v-12.5l-3.8-2.5v-8.8l10.2-15l3.8-6.3l-1.3-11.3l2.5-10l-6.4,5l-14,1.3
		l1.3-11.3l-8.9-15h-2.5l-10.2,10l-3.8-1.3l-11.4,10l-1.3-27.5l-5.1-2.5L322.8,646.6z"/>
	<path id="path3152" class="st5" d="M335.5,636.6l-1.3-22.5l2.5-2.5L338,584l-7.6-7.5H324l-2.5,5h-5.1l-5.1-10v-6.3l3.8-1.3
		l1.3-18.8l-7.6-1.3l3.8-2.5l-5.1-10l6.4-6.3l-1.3-8.8l2.5-17.5l15.3-5l5.1,1.3l11.4,8.8l14-2.5l6.4,8.8l17.8-2.5l14,5l-5.1,10
		l6.4,10l6.4,5l8.9,12.5l-1.3,3.8l11.4,7.5v5l-7.6,6.3l-5.1,2.5l5.1,7.5l-7.6,2.5l2.5,5l-7.6-3.8l-6.4,17.5h-5.1v10l3.8,3.8l-1.3,5
		l-6.4-1.3v-3.8h-14l-1.3-8.8l-8.9-3.8l-1.3,17.5h-3.8l1.3,5l7.6,5v3.8l-11.4,7.5l-3.8,2.5l-6.4-5l-6.4,7.5v-5h-6.4v5l-2.5-3.8H324
		v-7.5L335.5,636.6z"/>
</g>
<g id="Khulna" class="st0">
	<path id="path7082" class="st6" d="M254.1,1170.9l15.3,3.8l7.6-5l5.1,6.3l10.2,1.3l1.3-13.8l8.9,1.3l16.5-10l-1.3-6.3l-10.2-6.3
		l5.1-2.5l2.5-17.5l-3.8-6.3l-6.4-3.8l7.6-3.8l15.3,6.3l1.3-6.3l-5.1-6.3l-1.3-3.8h7.6l10.2-17.5l-1.3-20l8.9-3.8l3.8-8.8h6.4v-5
		l-6.4-7.5l1.3-5l7.6,3.8v6.3l7.6,2.5l1.3,7.5h5.1l5.1-7.5l8.9,3.8l6.4-8.8h11.4l3.8-7.5l15.3,10.7l10.2,1.8l1.3,5l17.8,15l1.3,7.5
		l-2.5,3.8h-3.8l-2.5,5l3.8,3.8l1.3,5l-3.8,1.3v7.5l5.1,2.5l-1.3,2.5H446l-6.4,10l1.3,13.8l-1.3,13.8l-3.8,6.3l-5.1,5l-6.4-1.3
		l-7.6,15l-1.3,8.8l5.1,1.3l-5.1,3.8v6.3l-6.4,6.3l-5.1-5l-2.5,3.8l3.8,10l-8.9,3.8l-21.6,3.8l-6.4-15h-10.2l-5.1-11.3l7.6-5
		l-12.7-5l-5.1-3.8l-3.8,3.8l7.6,10h-12.7l-10.2,5l7.6,7.5l7.6,3.8l-10.2,1.3l-16.5-5l-3.8,1.3l7.6,5l-3.8,8.8l-3.8,6.3l-1.3,6.3
		h-21.6l-12.7-6.3v8.8l-12.7-1.3l-2.5-6.3l-10.2-1.3l-6.4-3.8v-6.3l-7.6-5v-6.3l2.5-5l10.2-2.5l-1.3-6.3L254.1,1170.9L254.1,1170.9z
		"/>
	<path id="path8053" class="st6" d="M421.9,1175.9l-6.4-3.8v-6.3l8.9-15l6.4,1.3l10.2-12.5v-15l-1.3-12.5l3.8-10h8.9l2.5-3.8
		l-6.4-1.3v-8.8h3.8v-5l-5.1-5l1.3-5l6.4,2.5l2.5-5l-1.3-7.5l1.3-3.8l16.5,1.3l2.5,6.3l12.7,10l3.8,12.5l5.1,6.3v8.8l5.1,6.3
		l5.1,2.5v5h-6.4l-5.1,3.8l1.3,3.8h19.1l10.2,6.3l2.5,8.8h3.8v13.8l8.9,13.8l2.5,7.5l-11.4-7.5l-5.1,5l6.4,2.5v16.3h-15.3l-6.4,11.3
		l-6.4,2.5l-8.9-11.3l-5.1,2.5l-7.6,10l-5.1,2.5h-2.5l-6.4-7.5l-3.8,1.3l-7.6-8.8h-1.3l-2.5,2.5h-6.4l-6.4-5l-1.3-7.5l-7.6,1.3
		L421.9,1175.9L421.9,1175.9z"/>
	<path id="path2204" class="st6" d="M306.2,1218.5l10.2-17.5l-10.2-8.8h7.6l12.7,6.3h14l-16.5-12.5l6.4-5l17.8,1.3l-8.9-10l3.8-6.3
		l2.5,5l15.3,5l-6.4,5l3.8,10l11.4,1.3l5.1,15l15.3-2.5l16.5-3.8l-5.1-10l1.3-5l6.4,5l7.6-6.3l-2.5-7.5l5.1-2.5l16.5,11.3l6.4-1.3
		l1.3,6.3l7.6,7.5l6.4,1.3l3.8-5l6.4,8.8l11.4,3.8l-3.8,6.3l6.4,3.8l-3.8,3.8l1.3,15l-3.8,5l2.5,11.3l-11.4,1.3v3.8l6.4,2.5l1.3,5
		l-3.8,1.3l1.3,8.8l11.4-7.5h3.8l-1.3,12.5l7.6,2.5v2.5h11.4l2.5,3.8l-2.5,8.8l7.6,12.5c0,0,6.4,8.8,1.3,8.8c-5.1,0-7.6,0-7.6,0
		l-8.9-2.5l-3.8-3.8l-6.4-15l-3.8-3.8l-8.9,6.3l2.5,8.8l-7.6,11.3l-16.5,7.5l-1.3,6.3l5.1,6.3l-1.3,16.3l-1.3,5l-14-6.3v-6.3
		l-5.1-1.3l-1.3,3.8l-11.4,10l-7.6-1.3l-11.4,6.3h-7.6l0,0l-8.9-6.3l-1.3,1.3l-5.1-3.8l-1.3-6.3l7.6-1.3l-8.9-11.3l7.6,1.3l1.3-3.8
		l-5.1-8.8l-10.2-6.3l-1.3,7.5h-19.7l-8.3-6.3l-6.4-3.8l0,0l5.1,11.9l-5.1,5l-19.1-2.5l-5.1-5.6l-6.4,3.8h-5.1l3.8-7.5l-15.3-6.3
		l2.5-22.5l7.6-2.5l-3.8-6.3v-6.3l-5.1-3.8l10.2-16.3l12.7-5l-1.3-10l12.7-8.8l5.1,3.8l3.8-7.5l-5.1-2.5l-1.3-6.3l-11.4,8.8
		l-6.4-3.8L306.2,1218.5L306.2,1218.5z"/>
	<path id="path2205" class="st6" d="M479.1,1218.5l-6.4-8.8l10.2-1.3l10.2-10l3.8-3.8l7.6,11.3l8.9-3.8l6.4-8.8h14l3.8,10h10.2
		l1.3,2.5l-8.9,10l3.8,7.5h14l6.4,7.5v5l-3.8,6.3l3.8,1.3l8.9-6.3l10.2,1.3l-1.3,8.8l-3.8,8.8l-5.1,10h-6.4l-10.2-2.5l16.5,13.8
		l5.1,7.5l5.1,12.5l14,8.8v6.3l-3.8,1.3l-11.4,2.5l-29.2-11.3l-10.2,11.3l-16.5-8.8l-5.1,7.5h-3.8l-14-16.3l5.1-7.5l-3.8-7.5
		l-12.7-1.3l-6.4-6.3l2.5-10l-5.1-1.3l-11.4,11.3l2.5-10l-1.3-7.5l-7.6-2.5l14-2.5l-2.5-11.3l5.1-5L479.1,1218.5L479.1,1218.5z"/>
	<path id="path2206" class="st6" d="M332.9,1317.3l8.9,11.3l-6.4,7.5l-7.6-5l-10.2,1.3l-5.1-5l-11.4,6.3l2.5,10l7.6,8.8l3.8-6.3
		l5.1,2.5l-1.3,6.3l5.1,2.5l-1.3,7.5l-7.6,7.5l5.1,5l-5.1,1.3l-1.3,11.3l-7.6-3.8l2.5,11.3l10.2,13.8l-11.4,21.3l12.7,8.8l-2.5,7.5
		l-2.5,10l11.4,8.8l-2.5,11.3l7.6,12.5l1.3,13.8l5.1,3.8l-11.4,3.8l1.3,7.5l5.1,3.8l-5.1,21.3l12.7,1.3l2.5,10l-10.2-2.5v6.3
		l7.6,8.8l7.6,1.3v11.3l8.9,7.5l1.3,16.3l11.4-2.5l-8.9,12.5h-11.4l-1.3,10l3.8,12.5l11.4,20l-3.8,2.5l-1.3,30l8.9,11.3l1.3,16.3
		l1.3,8.8l15.3,7.5l11.4-5l7.6,15l-2.5,6.3l7.6,7.5l-5.1,11.3l-11.4,12.5l15.3,6.3l15.3-3.8l-2.5-6.3h8.9l1.3-7.5l-6.4-3.8l5.1-7.5
		v-25l-5.1-2.5l10.8-8.8l8.3-23.8l7.6-7.5l-3.8-11.3l-10.2-18.8l-10.2-20l-3.8-8.8l8.9-8.8h-21.6l12.7-17.5l6.4-13.8l5.1-31.3
		l-12.7-20v-6.3l7.6-6.3l-12.7-8.8l1.3-23.8l11.4-6.3l-11.4-21.3l1.3-28.8l7.6-8.8l6.4,11.3l7.6-10l-2.5-6.3l-7.6-1.3l-5.1-5l5.1-10
		l2.5,5l6.4,2.5l2.5-8.8l6.4-3.8l-1.3-6.3l-11.4-18.8l-12.7-6.3l-6.4-11.3l-2.5-3.8l-10.2,7.5l-8.9,1.3l-7.6-7.5l-3.8,2.5l-5.1-11.3
		l7.6-2.5l-11.4-11.3l10.2,2.5l-5.1-15l-7.6-5l-1.3,8.8h-20.3L332.9,1317.3L332.9,1317.3z"/>
	<path id="path3186" class="st6" d="M446.7,1406.8l-4.4,1.9l-1.9,9.4l-6.4-3.1l-2.5-6.9l-7,11.3l5.1,5.6l8.3,0.6l3.2,7.5l-7.6,10
		l-6.4-10.6l-8.3,7.5l-0.6,26.9l12.1,23.8l-12.1,6.3l-1.3,23.1l12.1,9.4l-7,4.4l-0.6,6.9l13.3,21.3l-5.7,30l-17.8,31.9l21-0.6
		l-8.3,8.8L446,1679l5.1,12.5l8.3,2.5l0.6,8.1l-13.3,2.5l-10.2,16.9l5.7,5l3.8,11.3h5.7l1.9,10l3.8,12.5l15.9,1.3l9.5-14.4l5.1-3.1
		l5.1-9.4l-2.5-5.6l-3.2-7.5l-12.1-7.5l9.5-5l17.2-17.5l1.3-13.8l0.6-15.6h5.1l8.9-32.5l0.6-25.6l-5.7-23.8l17.2-16.9l3.8-8.1
		l5.7-1.3l7.6-12.5v-15.6l-11.4-33.2l-6.4-3.1v-15l-8.9-18.8l-2.5-21.3l5.1-11.9l10.2-10l6.4-21.9l5.1-4.4l4.4,3.1l9.5-9.4l4.4-8.8
		l-1.9-10l-3.8-3.8v-8.1l13.3-0.6l8.3-6.9l5.1-26.3l-29.2-10l-12.7,11.3l-14.6-8.8l-6.4,8.1l-6.4,3.8l-14.6-1.9l-5.7-3.8l-10.2-19.4
		l-9.5,3.8l3.2,10l-9.5,11.3l-15.9,7.5l-1.9,5l5.1,5.6l-1.3,24.4l-14.6-6.9l1.3-6.3l-5.7-2.5l-0.6,4.4l-11.4,10l-8.3-1.3l8.9,15
		l12.7,5.6l9.5,16.3L446.7,1406.8L446.7,1406.8z"/>
	<path id="path3188" class="st6" d="M228.7,886.9h14l12.7,11.3l17.8,10l14,1.3l14,2.5l5.1-8.8l10.2,6.3h16.5l7.6,13.8l-2.5,11.3
		l3.8,11.3l5.1,1.3l6.4,1.3v7.5l11.4,5l3.8,10l5.1-6.3l6.4,3.8l7.6,8.8l17.8-1.3l-12.7-11.3l15.3-3.8l14,10l-10.2,3.8l1.3,7.5
		l11.4,8.8l7.6,5l7.6-1.3l5.1,2.5l-1.3,11.3l-1.3,17.5l-8.9,10l2.5,6.3H427l-15.3-10l-3.8-1.3l-2.5,7.5h-11.4l-6.4,8.8l-7.6-2.5
		l-10.2,8.8l-1.3-11.3h-7.6l1.3-7.5l-8.9-2.5l-1.3,5l6.4,8.8l-8.9,2.5l-0.7,8.5l-9.4,4v-16.3l-1.3-11.3l-5.1-6.3l-5.1,3.8l-6.4,8.8
		l-6.4-15L305,1022l6.4-7.5l-11.4-2.5l-8.9-6.3l5.1-5v-5l-7.6,1.3l-5.1-3.8l8.9-5l-3.8-10l-5.1-6.3l-8.9,5l-3.8-12.5l-3.8-5H263v10
		l-14-15l-5.1-6.3l-1.3-7.5l8.9-2.5l-11.4-6.3l7.6-3.8l-15.3-11.3L228.7,886.9z"/>
	<path id="path5134" class="st6" d="M247.8,955.7L263,972l1.3-12.5l7.6,7.5v7.5l3.8,5l7.6-7.5l8.9,13.8l-11.4,7.5l7.6,6.3l7.6-2.5
		l2.5,5l-8.9,3.8v2.5l-1.3,7.5l-6.4-3.8l-5.1,7.5l1.3,11.3l-11.4,1.3l0.3,23.8l-10.5,10.9l-9.8,1.6l-6.7,5l-5.1-1.3l-16.5,13.8
		l-2.5,3.8l-18.4,0.9l1.9-13.5l-8.9-2.5l-2.5-5l6.4-3.8l2.5-8.8l-6.4-2.5l1.3-13.8l6.4-6.3l-8.9-12.5l6.4,2.5l7.6-7.5v-2.5l-3.8-3.8
		l1.3-13.8l-2.5-2.5l7.6-3.8l6.4,2.5v7.5l4.4-5.5l7.7-0.4l13.3-14.1l8.3-0.9l2.9-7.5l-2.2-10.3L247.8,955.7z"/>
	<path id="path6105" class="st6" d="M213.5,1089.6l21.6-16.3l6.4,1.3l5.1-6.3l10.6-2.3l8.8-10.4l0.9-23.6l10.1-1.4l-2.5-11.1
		l7.6-6.3l6.4,5l2.6-11.3l6.3,6.3l14.7,1.3l-8.3,7.5l10.2,3.8l2.7,5.8l7.5,9.2l2.5-6.3l6.4-6.3l5.1,6.3l1.4,28.4l-0.2,16.6
		l-3.8,13.8l-3.3,4.4l-8.2,1.9v3.8l5.1,3.8l-1.3,6.3l-14-2.5l-7.6,2.5l6,1.4l4.2,8.6l-1.3,17.5l-6.4,2.5l7.4,4.2l2.8,5.8l-13.7,10.5
		l-11.7,0.4l-1.3,11.6h-8.9l-7.3-5.7l-8,3.2h-11.4l-3.8-3.8v-15l3.8-11.3l7.6,2.5l-1-8.3l3-7.4l-3.3-3.3l-6.4-1l5.5,5.4l-9.3,7.1
		l-5.1-5l1.3-5l-4.4-4l-9.6-4.8l-16.5-12.5l3.8-8.8L213.5,1089.6z"/>
	<path id="path7070" class="st6" d="M582.8,1316.9l14.4-5.3l-1.8,15.9l14.4,5.3l-9,8.9l1.8,8.9l12.6,8.8l16.2-5.3l10.8,12.4
		l1.8,24.8l-12.6,5.3l-7.2,3.5l-1.8,12.4h18l3.6,3.5v19.5l7.2,17.7l-5.4,8.9l7.2,23l-14.4-7.1l-10.8-5.3l-3.6,3.5l19.8,14.2v5.3
		h-5.4l-9,10.6v23l-10.8,17.7l-3.6,10.6l-1.8,21.2l10.8,15.9l3.6,19.5l-14.4,19.5l5.4,12.4l-1.8,23l7.2,19.5v10.6H617v10.6
		l-25.2,15.9l-9-7.1l-21.6-1.8l-12.6,3.5l23.4,17.7l-5.4,10.6h-19.8l-14.4-3.5l9,17.7l-12.6,3.5l-14.4-5.3l5.4-12.4l-10.8-15.9
		v-14.2l-1.8-14.2l3.6-28.3l-3.6-15.9l9-24.8l1.8-30.1l-7.2-26.5l21.6-17.7l12.6-8.8l3.6-28.3l-14.4-28.3l-5.4-5.3v-12.4l-9-17.7
		l-3.6-23l16.2-26.5l7.2-21.2h10.8l12.6-14.2v-12.4l-7.2-5.3V1347l19.8,1.8l5.4-14.2L582.8,1316.9L582.8,1316.9z"/>
	<path id="path4157" class="st7" d="M434.6,1736.6l-2.5,22.5l14,8.8l3.8-13.8L434.6,1736.6L434.6,1736.6z"/>
	<path id="path1921" class="st8" d="M370.3,1793.1c0-2.5-7.9-2.6-6-10C364.6,1781.6,374.5,1782.5,370.3,1793.1z"/>
</g>
<g id="Barisal" class="st0">
	<path id="path2242" class="st9" d="M631.6,1601.4l-2.5-18.8l-7.6-10l1.3-18.8l10.2-17.5l-2.5-11.3v-17.5l8.9-10h5.1l-6.4-6.3
		l-15.3-23.8l17.8,10l11.4,10l-1.3-11.3l-5.1-13.8l6.4-8.8l-6.4-17.5v-18.8l-5.1-5l-17.8-2.5l-1.3-13.8l20.3-7.5v-21.3l-1.3-5
		l2.5-3.8l1.3-8.8l19.1,2.5l6.4-8.8h1.3l8.9,11.3l-1.3,12.5h6.4l7.6,11.3h7.6l2.5,7.5l19.1,3.8l8.9,2.5l-1.3,6.3l-5.1,1.3v6.3
		l-8.9,6.3l-2.5,10l-14,8.8l7.6,7.5v10l-12.7,2.5v25l20.3,3.8l2.5,2.5l-2.5,6.3l-12.7,12.5l-7.6-6.3l-6.4,3.8l-7.6-3.8l1.3,15
		l-7.6,11.3l1.3,10l7.6-3.8l2.5,15l-3.8,7.5l-3.8,17.5l-8.9,16.3l-8.9,1.3l-15.3,16.3L631.6,1601.4L631.6,1601.4L631.6,1601.4z"/>
	<path id="path3218" class="st9" d="M682.4,1527.6l-6.4,5l-2.5-10l8.9-11.3l-3.8-18.8l7.6,7.5l8.9-5l5.1,5l15.3-10l1.3-7.5
		l-20.3-6.3l-1.3-23.8l12.7-3.8v-8.8l-8.9-10l14-7.5l1.3-10l11.4-6.3l-1.3-3.8l6.4-2.5l1.3-6.3l-8.9-5l8.9-7.5l5.1-2.5l2.5,7.5h7.6
		l5.1-2.5l10.2,11.3l-3.8,5l-1.3,6.3l2.5,3.8h7.6l3.8,6.3l21.6,3.8l1.3,5l-6.4,1.3l-3.8,6.3l14,2.5l1.3,6.3l-11.4,2.5
		c0,0,2.5,7.5-2.5,7.5c-5.1,0-10.2-5-10.2-5l-3.8,5l-7.6-1.3l-3.8,7.5l-2.5,7.5l-8.9,3.8l-14,8.8l-8.9,6.3l-1.3,8.8l-2.5,15
		l-10.2,6.3l-5.1,11.3l-6.4,7.5L682.4,1527.6L682.4,1527.6z"/>
	<path id="path4189" class="st9" d="M725.6,1481.3l16.5-8.8l16.5-7.5l5.1-13.8h7.6l2.5-3.8l15.3,3.8l2.5-8.8h8.9l-1.3-7.5l-15.3-2.5
		l3.8-7.5l6.4,1.3l-1.3-6.3l-20.3-2.5l-5.1-6.3l-10.2-1.3l1.3-7.5l5.1-3.8l-11.4-13.8h-8.9l-5.1-6.3l-16.5,10l-20.3-3.8l-1.3-5h-5.1
		l-7.6-12.5h-8.9l1.3-12.5l-7.6-10v-15l11.4-12.5l1.3-6.3l11.4-6.3l2.5-6.3l11.4-1.3v-15l15.3,1.3l5.1-7.5l6.4,2.5l-1.3,30l17.8,7.5
		l10.2-2.5l6.4-3.8l7.6,5l3.8-8.8l15.3-7.5l17.8,3.8l17.8,10l12.7,11.3l15.3,6.3l15.3,6.3l11.4,10l7.6,17.5l-7.6,8.8l-12.7,6.3
		l-21.6,15l-11.4,11.3l-1.3,8.8l-15.3,2.5l8.9,13.8l-3.8,10l1.3,11.3l5.1,7.5l-15.3,1.3l-14,7.5v8.8l-2.5,8.8l-8.9-2.5l-7.6-1.3
		l-16.5-7.5l-8.9,5l-1.3,6.3l-15.3,6.3l-1.3-11.3L725.6,1481.3L725.6,1481.3z"/>
	<path id="path2245" class="st9" d="M728.4,1479.7l18,1.8l-1.8,8.8l18-5.3v-3.5l10.8-7.1l12.6,5.3l-3.6,14.2l-12.6,1.8l-12.6,17.7
		l5.4,14.2l-3.6,10.6l-18,3.5l-7.2,12.4l-1.8,14.2l5.4,7.1l16.2-15.9l9-3.5l7.2,3.5l30.6,1.8l1.8,12.4l-18,17.7l-5.4,10.6l12.6,7.1
		v10.6l-12.6,21.2l-10.8,12.4v26.5l-18,21.2l1.8,19.5l-16.2,5.3l-14.4,8.8L705,1731l-12.6-10.6l-23.4-5.3l5.4-8.8l-7.2-8.9
		c0,0-7.2-19.5,1.8-19.5s21.6-7.1,21.6-7.1l-12.6-5.3l-12.6-1.8l1.8-17.7l9-10.6l-5.4-8.9l-5.4,12.4l-9,1.8l-1.8,12.4l5.4,5.3
		l-9,10.6l-14.4-23l-3.6-17.7v-24.8l0,0l18-8.9l9-10.6l7.2,3.5l12.6-26.5l5.4-14.2l-3.6-15.9l18,1.8l12.6-15.9l10.8-7.1l1.8-14.2
		L728.4,1479.7L728.4,1479.7z"/>
	<path id="path3216" class="st9" d="M785.9,1626.6l3.6-17.7l-12.6-7.1l19.8-21.2l5.4-5.3l-3.6-14.2l-27,1.8l-9-5.3l-25.2,14.2
		l-3.6-8.8l1.8-17.7l23.4-5.3l3.6-10.6l-7.2-15.9l14.4-15.9l10.8-1.8l5.4-14.2l16.2,1.8l5.4-15.9l25.2-7.1l1.8-12.4l12.6,12.4
		l10.8,14.2l-1.8,17.7l14.4,5.3l9,28.3l-12.6,7.1v15.9l-10.8,21.2l-7.2,19.5l-3.6,10.6l3.6,24.8l-32.4,10.6L785.9,1626.6z"/>
	<path id="path4187" class="st9" d="M791.3,1635.4l18,8.8l9,8.9l1.8,14.2l-5.4,15.9l-9,12.4l-19.8-8.8l-5.4,12.4l-5.4,17.7
		l-12.6,5.3l3.6-19.5l7.2-14.2v-15.9l7.2-14.2L791.3,1635.4L791.3,1635.4z"/>
	<path id="path4190" class="st9" d="M827.2,1644.3l16.2-10.6l5.4,10.6l-1.8,12.4l-10.8,12.4l-9,8.9v-19.5L827.2,1644.3L827.2,1644.3
		z"/>
	<path id="path4192" class="st9" d="M847,1674.4l-16.2,15.9l-5.4,15.9l14.4,7.1l10.8-12.4l-3.6-12.4L847,1674.4L847,1674.4z"/>
	<path id="path5169" class="st9" d="M852.4,1612.4l16.2-17.7l14.4-21.2l1.8-31.9l-1.8-23l-7.2-19.5l-7.2-19.5v-19.5l-12.6-10.6
		l-12.6-14.2l1.8-15.9l10.8-17.7l16.2-8.9l7.2-8.8l25.2-1.8l5.4,19.5l10.8,38.9l18,21.2l12.6,15.9l7.2,10.6l-1.8,19.5l-5.4,5.3v23
		l-7.2,15.9l-3.6,12.4l-3.6,15.9v15.9v12.4l-12.6,8.9l-7.2,14.2l-21.6,7.1l-1.8,10.6l-10.8,5.3l-14.4,8.8c0,0-5.4-1.8-5.4-8.8
		c0-7.1-5.4-15.9-5.4-15.9l9-12.4L852.4,1612.4L852.4,1612.4z"/>
	<path id="path5171" class="st9" d="M863.2,1686.7l9-12.4l10.8,14.2l-7.2,7.1L863.2,1686.7z"/>
	<path id="path5173" class="st9" d="M980,1529.2l-7.2,23l-9,26.5v24.8l18,19.5v-23v-23l9-23l1.8-12.4L980,1529.2L980,1529.2z"/>
	<path id="path5175" class="st9" d="M890.1,1660.2l-5.4,14.2h18L890.1,1660.2z"/>
</g>
<g id="Chittagong" class="st0">
	<path id="path4177" class="st6" d="M926.4,1059.6l-15.3-6.3v-3.8l-12.7-10l3.8-10l11.4-13.8l1.3-17.5l8.9-5l3.8,5h11.4l3.8-3.8
		l21.6,2.5v-8.8l7.6-2.5l5.1-21.3l10.2-2.5l-6.4-11.3l11.4-16.3l14-6.3l-1.3-5l7.6-7.5l-2.5-12.5l-7.6-1.3l-7.6-13.8l10.2-12.5
		l17.8,2.5l6.4-10l21.6-7.5l21.6,6.3l11.4,7.5l14-20l10.2,2.5v7.5l-16.5,11.3l10.2,6.3v6.3l-12.7-3.8l-1.3,15l7.6,5l-8.9,2.5l6.4,20
		l6.4,8.8v3.8l-5.1,2.5v10v3.8l-14,6.3l5.1,12.5l-10.2,2.5l-7.6,15l7.6,8.8l1.3,6.3l-6.4,5l-2.5,10l5.1,10l-7.6,10l-5.1-3.8h-8.9
		l-6.4,5l1.3,15l6.4,2.5l3.8-5l3.8,2.5v16.3h-5.1l-8.9-7.5l-2.5,3.8l-10.2-10v-10h-5.1l-1.3-5l-10.2-2.5l6.4-5l-14-11.3l-20.3-1.3
		l-8.9,7.5h-15.3l-6.4,1.3l2.5,10l-11.4,2.5l-14-10l-7.6,5l1.3,3.8l3.8,3.8L926.4,1059.6L926.4,1059.6z"/>
	<path id="path3208" class="st8" d="M881.2,1074.9l-1.4,11.9l7.6,9.7l2.2,5.8l4.9-0.9l6.7-10.2l7.6-12.8l-3.6-9.3l0.4-10.6l-7.3-8.5
		l-7.6,14.3l-12.1-3.1l-0.4,9.3L881.2,1074.9z"/>
	<path id="path4179" class="st6" d="M900,1104.1l11.2-20.4l4-6.2l-5.4-8.8l1.8-15l14.4,6.2l6.3-9.3l-3.1-5.3l-0.9-4l5.8-3.5
		l14.8,9.7l11.2-3.1l-1.4-9.3l6.7-1.8l14.8,0.4l8.1-7.5l19.3,1.3l-3.1-0.9l11.2,6.2l6.7,5.8l-5.4,4.4l9.4,3.1l1.8,4.4h4.9l-0.9,9.7
		l10.3,9.7l2.2,4.4l-0.4,11.5l3.1,7.5l10.3,10.6l-0.4,7.1l6.3,2.2l-3.1,2.7l0.4,5.3l13,10.2l6.7,21.7l6.7,21.7l1.1,7.5l-1.6,5.4
		l0.9,4.4l9,4.9l-3.6,3.1l-0.4,4l3.1,6.6l2.7,3.5l-0.9,4.4l1.8,34.1l4.5,5.8l4.9,9.7l-1.4,11.1l-9.9,5.8l-12.6-6.6l-10.8,0.4
		l-16.2-2.2l-8.1-5.3l-8.1-0.4l-9.4,5.3l-3.1-2.2h-9l-11.7-5.8l-5.8-10.2l-0.4,0.9l-7.2-0.4l-4.9-7.1l8.5-2.2l5.4-7.5l-0.9-15.5
		l5.8-9.7l-6.7-6.2l-1.3-9.7l-8.1-9.7l-3.6-8l-13.5-9.7l-1.8-8.9l-9.4-6.2l-3.6-17.3l-18-4.9l-13,11.1l-4.9-3.1l-4.9,10.2h-5.4
		l-12.1-6.6v-8.4h-0.4l-5.8-6.2l-8.5-8.4l7.2-4l-0.4-8.4L900,1104.1L900,1104.1z"/>
	<path id="path5150" class="st6" d="M866.7,1299.8l-12.7-21.3l-5.1-12.5l6.4-17.5l8.9-15l11.4-12.5l3.8-12.5l-5.1-10v-8.8l-8.9-5
		l-8.9-2.5v-8.8l-7.6-3.8l6.4-12.5l2.5-12.5l1.3-10l12.7-3.8l8.9-3.8l7.6-1.3l14,12.5l1.3,8.8l14,6.3l6.4-8.8l5.1,5l12.7-16.3
		l21.6,6.3l2.5,16.3l11.4,7.5l1.3,11.3l12.7,11.3l11.4,15l-1.3,8.8l10.2,8.8l-7.6,7.5l1.3,16.3l-3.8,8.8h-8.9l-5.1,2.5l-7.6-5
		l-14,1.3l-6.4-10h-6.4l-7.6,3.8l-3.8,12.5l-2.5,8.8l-17.8,6.3H915l-12.7,7.5h-2.5l-3.8-7.5h-3.8l-3.8,5l-1.3,12.5v6.3l-7.6,8.8
		L866.7,1299.8L866.7,1299.8z"/>
	<path id="path6121" class="st6" d="M876.9,1302.3l3.8,12.5l16.5,6.3l2.5,10l5.1,10l16.5,13.8l6.4,23.8l11.4,26.3l5.1,20l22.9,22.5
		l7.6,13.8l17.8,6.3l20.3-15l-3.8-17.5l-14-22.5l1.3-7.5l-20.3-30l-1.3-20l12.7-6.3l3.8-15v-21.3l-12.7-8.8l-15.3-6.3l-1.3-5
		l10.2-3.8l-5.1-8.8l6.4,1.3l12.7-28.8l-7.6-3.8h-12.7l-5.1-10l-14,2.5l-7.6,25l-20.3,6.3l-2.5-2.5l-16.5,8.8l-5.1-7.5h-3.8
		l-3.8,3.8v23.8L876.9,1302.3L876.9,1302.3z"/>
	<path id="path6152" class="st6" d="M977.3,1352.4l10.2-12.5l5.1-20l-10.2-12.5l-17.8-12.5l2.5-12.5l15.3-27.5l20.3,7.5l20.3,17.5
		l20.3-7.5l12.7,2.5l28,7.5l2.5,10l-2.5,12.5v10l-7.6,22.5l22.9-2.5h12.7l-10.2,15v12.5l5.1,17.5l-15.3-7.5l-15.3,5l-28-2.5
		l-15.3-10l-7.6,10c0,0-7.6,7.5-17.8,2.5C997.6,1372.4,979.8,1354.9,977.3,1352.4L977.3,1352.4z"/>
	<path id="path6154" class="st6" d="M1002.7,1407.4h28l12.7,15l10.2,17.5l-7.6,15l-17.8,7.5l-12.7-2.5l-2.5-22.5L1002.7,1407.4
		L1002.7,1407.4z"/>
	<path id="path6156" class="st6" d="M1045.9,1392.4l33,2.5l15.3,12.5l-2.5,15l-22.9-10L1045.9,1392.4L1045.9,1392.4z"/>
	<path id="path6158" class="st6" d="M1091.6,1467.5l-25.4-7.5v-20v-12.5l20.3,10l7.6,12.5L1091.6,1467.5z"/>
	<path id="path6160" class="st6" d="M997.6,1480l33,2.5l10.2,22.5l2.5,20l10.2,12.5l-2.5,27.5l-5.1,27.5l-17.8,12.5l-15.3,17.5
		l-7.6-2.5l2.5-25l2.5-27.5l2.5-25l-2.5-25L997.6,1480z"/>
	<path id="path7138" class="st6" d="M1107.6,1375.3l-7.2-10.6l1.8-10.6l10.8-19.5l-12.6,1.8l-16.2-3.5l-5.4,5.3l3.6-14.2l-1.8-12.4
		l3.6-10.6l-5.4-21.2l19.8,5.3l10.8-8.9l10.8,3.5l7.2-7.1l-5.4-15.9l-3.6-10.6v-10.6l3.6-14.2l1.8-12.4l16.2,3.5l10.8,17.7
		l10.8,21.2l3.6,15.9v14.2l12.6,17.7l-1.8,12.4l14.4,5.3l-19.8,1.8l1.8,19.5h-14.4l-10.8,7.1l-5.4,15.9l-12.6,17.7v12.4l-7.2-3.5
		v-8.9L1107.6,1375.3L1107.6,1375.3z"/>
	<path id="path2436" class="st6" d="M1095,1387.7l16.2,5.3l3.6,12.4l-5.4,1.8L1095,1387.7L1095,1387.7z"/>
	<path id="path2438" class="st6" d="M1105.8,1423.1l10.8,19.5l7.2,10.6v7.1l-3.6,1.8l-3.6,17.7l5.4,19.5l16.2,17.7l10.8,5.3v10.6
		l1.8,3.5h14.4l9-10.6l3.6-10.6v-10.6l-3.6-10.6l-28.8-47.8l-1.8-10.6L1105.8,1423.1z"/>
	<path id="path2440" class="st6" d="M1260.4,1580.6l-10.8-7.1l-3.6-21.2l-1.8-19.5v-7.1l-12.6-19.5l-9-24.8l-14.4-12.4l-10.8-15.9
		l-7.2-14.2v-5.3l-7.2-8.9l-9-7.1l-27-19.5l5.4-8.9L1140,1377l1.8-10.6l5.4-21.2l18-7.1h7.2l1.8-17.7h14.4l12.6,3.5l7.2-8.9
		l21.6-5.3l10.8,5.3l3.6,10.6l-7.2,12.4l9,12.4l9,17.7l9,15.9l7.2,12.4v-14.2h14.4l7.2,5.3v15.9l12.6,1.8l3.6,17.7l1.8,19.5
		l5.4,14.2l-1.8,12.4l12.6,8.9l3.6-8.9l1.8-8.9l-5.4-7.1l1.8-15.9l14.4-5.3l14.4,15.9l12.6,30.1l3.6,21.2l-12.6,23l19.8,14.2
		l-3.6,14.2l-1.8,8.9l5.4,21.2l1.8,8.9v8.9l5.4,8.8l-3.6,10.6l3.6,17.7l10.8,21.2l-5.4,10.6l-5.4,7.1l5.4,12.4l-12.6,3.5l-10.8-3.5
		l3.6-10.6h-16.2l-10.8,10.6l-19.8,3.5l-10.8,10.6l-18,10.6l-3.6-14.2l9-12.4l-14.4-12.4v-15.9l-10.8-14.2l-3.6-24.8l-9-8.8
		L1260.4,1580.6L1260.4,1580.6z"/>
	<path id="path4391" class="st6" d="M1307.7,1415l17.8-22.5v-17.5l7.6-25l35.6-25l-10.2-47.6l25.4-12.5l-5.1-22.5l-12.7-32.5l5.1-20
		l-17.8-17.5l25.4-30l-30.5-67.6l-15.3,2.5l-17.8-30h-7.6l-10.2,10l10.2,42.5l5.1,27.5l-7.6,10v15l-15.3-5l-17.8,15l-17.8,30
		l-7.6,22.5l12.7,22.5l2.2,31.7l-3.1,8.1l-9.3,0.3v7.5l-20.3,25l15.3,12.5l-5.1,10l2.5,10l15.3,32.5l15.3,20l2.5-10l17.8,2.5l2.5,15
		L1307.7,1415L1307.7,1415z"/>
	<path id="path7308" class="st6" d="M1396.7,1712.8l-10.2,12.5l-17.8-7.5l-5.1-10l-15.3-22.5l7.6-10h12.7l5.1,10l17.8,2.5v-10
		l7.6-20l-7.6-12.5l-5.1-25l-2.5-12.5l-5.1-25l-5.1-17.5l5.1-25l15.3,5l15.3-7.5h25.4l15.3,10l22.9,12.5l12.7,27.5l12.7,35l-5.1,10
		l15.3,32.5l15.3,42.5l2.5,12.5l-2.5,27.5v17.5l-2.5,20l2.5,25l7.6,27.5l2.5,27.5l2.5,22.5l12.7,22.5l-12.7,5l-12.7,15l-7.6-5
		l-2.5-12.5l-7.6-17.5l2.5-10l-7.6-2.5l-7.6,5l-12.7,2.5l-15.3-5l-2.5-10l-10.2-25l-7.6-5l-10.2,12.5l-5.1,10l-10.2-2.5l-12.7,22.5
		l-7.6,2.5l-7.6,10l2.5,20l-7.6,17.5l-2.5-25l-7.6-20l-2.5-10l15.3-17.5l10.2,10l7.6-15l-10.2-20l-10.2-17.5l5.1-10l-12.7-12.5
		l-5.1-15l-7.6-20l12.7-12.5h20.3v-15h12.7v-7.5L1396.7,1712.8L1396.7,1712.8z"/>
	<path id="path8281" class="st6" d="M1310.2,1440l-5.1-25l12.7-15l10.2-17.5l2.5-30l38.1-27.5l-2.5-15l-5.1-27.5l22.9-17.5l-5.1-20
		l-7.6-32.5v-17.5l-17.8-25l22.9-30l-10.2-25l-17.8-45.1l5.1-7.5l20.3-20h12.7l7.6,12.5l5.1,20l5.1-17.5l5.1-10l12.7,5l-7.6,17.5
		l5.1,17.5l5.1,12.5l5.1,45l12.7,17.5l7.6,15l-5.1,10l7.6,7.5l2.5,10l-17.8,12.5l2.5,20l2.5,17.5l2.5,12.5l10.2,12.5l-7.6,40
		l10.2,20l20.3,10l-5.1,12.5l7.6,30l15.3,15l2.5,20l5.1,25l-7.6,5l7.6,25l5.1,30l5.1,25v15l5.1,20l5.1,20v22.5l-12.7-5l7.6,27.5
		l10.2,40l7.6,25l-10.2,17.5l-5.1-12.5l-7.6-22.5l-7.6-25l-12.7-25l2.5-7.5l-5.1-20l-10.2-35l-10.2-10l-25.4-17.5l-33-7.5l-22.9,10
		l-15.3-12.5l-10.2-15l7.6-20l-2.5-20l-12.7-25l-15.3-22.5l-7.6,2.5l-10.2,15l7.6,20l-5.1,10l-10.2-12.5L1310.2,1440L1310.2,1440z"
		/>
	<g id="Cox">
		<path id="path5362" class="st6" d="M1259.4,1690.3l25.4-5l5.1,25l-7.6,22.5l-15.3,25l2.5-17.5l2.5-35L1259.4,1690.3z"/>
		<path id="path5364" class="st6" d="M1295,1712.8l28-15l12.7-10l12.7-2.5l17.8,30l20.3,10l7.6-2.5l5.1-12.5l12.7,17.5v7.5h-12.7
			l-2.5,17.5h-22.9l-10.2,12.5l10.2,25l20.3,20l-7.6,12.5l12.7,20l10.2,12.5l-5.1,17.5h-10.2l-2.5-10l-17.8,20l5.1,22.5l16.2,18.5
			l2.5,12.5l-12.1,14.5l11.1,20l18.8,23.5l-11.1,14l12.6,20l5.2,15.9l-4.9,9.9l7.3,16.2l10.2,25l-2.5,12.5l-7.6-7.5l-10.2-27.5
			l-12.7-15l-10.2-17.5l-7.6-17.5v-15l-43.2-50.1l-5.1-40v-17.5l-7.6-17.5l-15.3-20l-2.5-10l12.7-15l2.5-17.5l5.1-15l5.1-22.5
			l-2.5-27.5l-10.2,22.5l-12.7-7.5l10.2,17.5l7.6,20l-12.7,25l2.5,2.5l-25.4-2.5l2.5,12.5h-15.3l-2.5-12.5l7.6-22.5l5.1-20l-12.7-10
			L1295,1712.8L1295,1712.8z"/>
		<path id="path3682" class="st10" d="M1306.6,1761.3l25.4-5l5.1,25l-7.6,22.5l-15.3,25l2.5-17.5l2.5-35L1306.6,1761.3z"/>
		<path id="path1881" class="st8" d="M1418.3,2144.1c-1.3-5.3,0.6-7.4-4-12c-6.3-6.3,1.1-7,6-7
			C1422.1,2125.1,1418.4,2143.7,1418.3,2144.1z"/>
	</g>
</g>
<g id="Sylhet" class="st0">
	<path id="path2228" class="st5" d="M1068.8,738v-10l17.8-15l-7.6-12.5l-16.5-5l-8.9-5l2.5-11.3l7.6-3.8l3.8-8.8l-5.1-8.8l-3.8-2.5
		l-8.9,12.5l-5.1-8.8l1.3-10l-7.6-11.3l-21.6-2.5l-8.9-11.3l-17.8-2.5v-16.3l-5.1-11.3v-13.7l6.4-6.3l-12.7-3.8l2.5-5l12.7-1.3
		l-6.4-7.5l2.5-23.8l2.5-6.3l20.3-3.8h14l17.8,3.8l34.3-6.3l31.8,16.3l5.1-6.3l15.3,5l16.5,10h11.4l5.1-5l8.9,2.5l19.1-10v10
		l6.4,1.3l3.8,7.5l19.1-5l7.6,1.3l-2.5,7.5l10.2,8.8l1.3,11.3l-6.4,7.5v3.8l14,13.8l-1.3,5l-3.8,1.3v3.8l7.6,3.8v10l-7.6,15v3.8
		l7.6,10l-12.7,2.5l-6.4,7.5l7.6,16.3l-7.6,2.5l7.6,11.3l-11.4,22.5l-19.1-2.5l-1.3,6.3l3.8,3.8l-5.1,3.8l-5.1-6.3h-10.2l-16.5-3.8
		l-5.1,5l5.1,5l-8.9,7.5l-17.8-13.8l-1.3-7.5l-10.2-1.3l-11.4,10l-11.4,6.3l1.3,10l-2.5,6.3l-7.6-5l-11.4,10l-10.2,2.5L1068.8,738
		L1068.8,738z"/>
	<path id="path2230" class="st5" d="M1223.8,715.4l14-23.8l-8.9-11.3l7.6-1.3l-6.4-17.5l8.9-7.5h10.2l-10.2-12.5l8.9-15l1.3-12.5
		l-10.2-6.3l6.4-6.3l-12.7-15v-5l5.1-5V564l-10.2-8.8l1.3-6.3l-7.6-6.3l3.8-6.3h3.8l11.4,3.8l7.6-8.8l38.1,1.3l22.9-3.8l8.9,7.5
		l7.6-10h20.3l14,5l11.4,13.8l5.1-1.3l5.1,3.8l5.1-2.5l8.9,5v6.3l6.4,1.3l15.3,7.5l10.2,2.5l3.8-3.8h5.1v10l14,3.8l12.7,7.5
		l-2.5,7.5l5.1,11.3l11.4,3.8l-5.1,6.3l11.4,1.3l5.1,7.5l-1.3,18.8h-5.1l-5.1-2.5l-7.6,7.5l-15.3-1.3l-21.6-3.8l-12.7,3.8l-10.2,6.3
		l8.9,10l-1.3,8.8l-11.4,21.3h-8.9l-19.1,2.5l-5.1-10h-6.4l-1.3,8.8l-5.1,16.3l-12.7,10l-6.4,2.5l-15.3,3.8l-6.4-5l-7.6,5l-8.9-1.3
		l-3.8-6.3l-8.9,5l-6.4-6.3l-7.6,8.8l-10.2,13.8l-20.3,1.3l-3.8-8.8l-12.7-1.3l5.1-7.5L1223.8,715.4L1223.8,715.4z"/>
	<path id="path3203" class="st5" d="M1056.1,859.3l7.6-2.5l-5.1-7.5l-5.1-2.5l2.5-7.5l15.3,1.3l8.9-3.8V828l-5.1-6.3l8.9-2.5
		l-1.3-7.5l-8.9-10l5.1-6.3l1.3-8.8l-2.5-5l-6.4-3.8l-7.6,3.8l-8.9-3.8l17.8-6.3l6.4-17.5l12.7-8.8l8.9-8.8l8.9,10l3.8-7.5l-3.8-8.8
		l8.9-12.5l16.5-5h6.4l8.9,7.5l10.2,15l6.4-10v-3.8l6.4-5l5.1,2.5l20.3-2.5l5.1,11.3l6.4-2.5l-5.1-6.3v-6.3l16.5,2.5l15.3,3.8
		l-7.6,11.3l12.7,1.3l2.5,6.3l-8.9,10l-8.9-6.3l-7.6-1.3l-3.8,2.5l7.6,12.5l7.6,5h-7.6l-8.9,6.3l-2.5,20l-2.5,36.3l7.6,21.3
		l-7.6,21.3l-5.1,3.8v3.8l6.4,5v5l-5.1,2.5v26.3l-16.5,10l-17.8,2.5l-11.4-8.8h-14l-12.7-6.3h-11.4l-2.5,7.5l7.6,10l-2.5,8.8
		l-6.4,8.8l-3.8,12.5l-19.1-5v-8.8l3.8-2.5l-2.5-10l-10.2-21.3l12.7-3.8l-10.2-5v-15l14,3.8v-7.5l-11.4-5l17.8-12.5v-7.5l-11.4-2.5
		l-11.4,20l-10.2-7.5L1056.1,859.3L1056.1,859.3z"/>
	<path id="path4174" class="st5" d="M1207.3,868.1l8.9-23.8l-8.9-20l6.4-57.6l7.6-5l14,1.3l-10.2-5l-12.7-15l6.4-3.8l8.9,1.3
		l8.9,8.8l7.6-10l19.1,1.3l20.3-25l6.4,6.3l7.6-3.8l3.8,6.3l12.7,1.3l5.1-5l5.1,5l17.8-3.8l17.8-10l6.4-26.3h6.4l3.8,10l17.8-3.8
		h12.7l-2.5,8.8l-3.8,8.8l-8.9,16.3l-3.8,22.5l-19.1,12.5l-2.5,22.5l6.4,8.8v7.5l-8.9,17.5h-16.5l-25.4-3.8l-10.2,2.5l10.2,8.8
		l2.5,10l-6.4,2.5l-2.5-6.3l-1.3-5l-7.6-1.3l-8.9,8.8l5.1,5v27.5l-6.4,7.5l-2.5,25h-8.9l-6.4-13.8l-10.2-8.8l5.1-5l-10.2,2.5h-11.4
		l-3.8-7.5l-7.6,1.3h1.3v23.8l5.1,7.5l-6.4,5l-6.4-2.5l-3.8-6.3l-11.4-7.5L1207.3,868.1L1207.3,868.1z"/>
</g>
<g id="Mymensingh" class="st0">
	<path id="path8041" class="st11" d="M549,555.3l17.8-18.8l-1.3-11.3l8.9-10l8.9,1.3l7.6-10l-1.3-12.5l-6.4-11.3v-21.3l12.7-8.8
		l-6.4-3.8v-8.8l14,10l-3.8,20l7.6,7.5l-1.3,10l8.9,6.3h8.9l6.4-8.8l11.4,2.5l7.6-1.3v18.8l-2.5,2.5l-7.6-5l-3.8,17.5l-7.6,7.5
		l3.8,8.8l10.2-1.3l-1.3,6.3l-5.1,6.3l-1.3,10l11.4,8.8l-1.3,7.5l-8.9,5l1.3,5h-6.4v6.3l6.4,12.5l1.3,7.5l7.6-1.3l6.4,7.5l-2.5,7.5
		l8.9,3.8l29.2,7.5l2.5,8.8l16.5-13.8l24.1,11.3l-1.3,15L718,669.1l-8.9-1.3h-20.3l-11.4,2.5l-19.1,22.5l-6.4-8.8l-2.5-3.8l-8.9-3.8
		v7.5l-10.2,6.3l-5.1-3.8l-3.8,7.5l3.8,7.5l7.6,5l-2.5,5l-3.8-1.3l-5.1,11.3h-6.4v8.8l-7.6,2.5v13.8l-6.4,2.5l-10.2-1.3v-11.3
		l-7.6-6.3l10.2-1.3l3.8-26.3l-10.2-11.3l7.6-1.3l1.3-8.8l-11.4-7.5l-5.1-1.3l-2.5,5l-7.6-8.8h3.8l2.5-6.3l-1.3-6.3l-8.9,1.3
		l-10.2-11.3l-1.3-10l6.4-1.3l-1.3-11.3l-5.1-6.3l1.3-6.3l-5.1-5l5.1-5v-11.3h-8.9l7.6-8.8l-6.4-3.8l3.8-8.8L549,555.3L549,555.3z"
		/>
	<path id="path3201" class="st11" d="M688.8,644.1l-1.3-8.8l-20.3-5l-17.8-6.3l2.5-7.5l-6.4-7.5l-6.4,1.3l-1.3-7.5l-6.4-8.8l-3.8-10
		l8.9,1.3V579l7.6-5l1.3-6.3l-8.9-7.5l-2.5-8.8l6.4-7.5l1.3-10l-10.2,1.3l-3.8-7.5l10.2-7.5l2.5-17.5l5.1,6.3l5.1-5v-18.8l8.9,7.5
		l12.7,7.5l6.4,3.8l16.5,6.3l14,3.8l19.1,2.5l14,6.3h8.9l3.8,6.3v11.3l1.3,13.8l-2.5,8.8l15.3,7.5l-5.1,8.8l-12.7-2.5l-8.9,12.5
		l7.6,6.3l-5.1,7.5l3.8,10l8.9,5l-5.1,2.5l-7.6-2.5l1.3,6.3l6.4,5l-6.4,12.5l-16.5-1.3l-10.2-5l-14-6.3L688.8,644.1L688.8,644.1z"/>
	<path id="path4172" class="st11" d="M765,850.6l-11.4-5l-10.2-21.3l5.1-5v-12.5L735.8,788l2.5-8.8l8.9-2.5l-19.1-10l-7.6-7.5
		l-10.2-17.5l1.3-7.5l7.6-8.8v-6.3l-11.4-16.3l1.3-21.3l-11.4-1.3l-3.8-10l12.7-2.5l11.4,2.5l11.4-13.8v-12.5l6.4-3.8l8.9,2.5
		l8.9-11.3l-8.9-6.3v-7.5l7.6,2.5l7.6-1.3l-10.2-5l-5.1-11.3l5.1-7.5l-6.4-6.3l8.9-12.5l12.7,5l5.1-10l-10.2-3.8l-5.1-6.3v-6.3v-25
		l-1.3-5l6.4-1.3l6.4,5h11.4l3.8,7.5l26.7,5l12.7-5l15.3-6.3l16.5,2.5l6.4-3.8l10.2,5l8.9-7.5l6.4,3.8l-2.5,6.3l-6.4,17.5l-1.3,10
		l-6.4,5l10.2,11.3l-1.3,7.5L868,589l-5.1,7.5l-2.5,10l-5.1,1.3l-5.1-13.8l-3.8,5l-7.6-2.5l-3.8,2.5l10.2,7.5l2.5,10l-2.5,7.5h2.5
		l6.4,12.5h8.9l-1.3,13.8l6.4,5l-3.8,5h8.9l8.9,7.5l12.7,2.5l5.1-3.8l11.4,3.8l-2.5,7.5l-6.4-1.3l2.5,8.8l5.1,2.5l2.5,2.5l-6.4,7.5
		l-1.3,12.5l10.2,8.8l8.9,5l2.5,16.3l7.6-5l1.3,5l10.2,6.3l2.5,5l-7.6,12.5l-8.9,8.8l-8.9-3.8l-5.1-8.8l-7.6,15l-5.1-10l-7.6,13.8
		l-10.2,1.3l-8.9-7.5h-11.4l-3.8,10l11.4,8.8l12.7,7.5l-1.3,16.3l-6.4,5l-1.3,11.3l6.4,13.8l3.8,7.5l-8.9-2.5l-11.4,5h-12.7
		l-10.2-7.5l1.3-7.5l-17.8-6.3l-1.3-5l-12.7-1.3l-5.1,20l-5.1-2.5l-6.4,2.5l-7.6-8.8l-3.8,7.5L765,850.6L765,850.6z"/>
	<path id="path6116" class="st11" d="M946.8,748l-10.2-3.8l-1.3-8.8l-8.9,3.8l-2.5-12.5l-11.4-6.3l-6.4-8.8l-1.3-12.5l8.9-8.8
		l-11.4-6.3v-7.5l5.1,1.3l5.1-7.5l-14-5l-2.5,5h-12.7l-8.9-8.8h-11.4l5.1-6.3l-5.1-5v-12.5l-8.9-1.3l-5.1-13.8h-3.8l1.3-5l-1.3-11.3
		l-11.4-7.5h14l2.5-6.3l5.1,15h6.4l2.5-11.3l3.8-6.3h6.4l5.1-10L868,569l7.6-3.8l-2.5-7.5l5.1-8.8l6.4-15l10.2,1.3l3.8,3.8
		l21.6-13.8l7.6,11.3l33,1.3l3.8-3.8l10.2,5l16.5-13.8l1.3,6.3l-3.8,1.3l-1.3,23.8l5.1,5L990,564l-7.6,1.3l-2.5,6.3L990,574
		l-5.1,6.3l-1.3,12.5L990,604v17.5l15.3,3.8l10.2,10l24.1,1.3l6.4,10v11.3l5.1,10l5.1-10l6.4-1.3l5.1,8.8l-3.8,10l-8.9,2.5v12.5
		l6.4,3.8l7.6,1.3l10.2,3.8l5.1,6.3l3.8,5l-7.6,8.8l-10.2,7.5l-14,1.3l-21.6,13.8l-3.8-6.3l-15.3-3.8l-11.4,7.5l-8.9-1.3l-17.8,1.3
		H962L946.8,748L946.8,748z"/>
</g>
<g id="Dhaka" class="st0">
	<path id="path4163" class="st1" d="M442.2,1013.3V997l-6.4-5l7.6-3.8l17.8,1.3l10.2,1.3l6.4,7.5v8.8l2.5,8.8l19.1,11.3l-5.1-13.8
		l10.2-1.3l2.5,6.3l6.4,3.8l17.8-11.3l6.4,3.8l-1.3,6.3l6.4,7.5v-10l28-1.3l14,2.5l8.9,11.3l1.3,13.8l-11.4-8.8l-8.9-11.3h-30.5
		l-1.3,5H568l12.7,8.8l16.5,12.5l6.4,5l5.1,2.5l-6.4,2.5l-1.3,6.3h-12.7l-1.3,6.3l-8.9-2.5v17.5l10.2,6.3l-2.5,6.3h-8.9l-2.5-6.3
		l-2.5,6.3l-12.7-1.2l-2.5-15l-15.3,13.8H535l-2.5-11.3h-5.1l-2.5,5l-12.7-6.3l-2.5,5l7.6,5l-7.6,3.8l-5.1-1.3v-6.3l-10.2-1.2
		l-5.1-13.8l-12.7-8.8l-1.3-7.5l-17.8-1.3l-2.5,3.8l-15.3-13.8l-2.5-7.5l-3.8-7.5l8.9-8.8L442.2,1013.3L442.2,1013.3z"/>
	<path id="path5128" class="st1" d="M494.7,1090.3l8.1,1.8l0.9,6.2l5.4,2.7l8.1-4.4l-9-5.3l3.6-4.4l13.5,5.3l1.8-5.3l4.5,0.9
		l2.7,10.6l7.2,0.9l14.4-14.2l2.7,15l12.6,1.8l2.7-7.1l3.6,6.2l8.1,0.9l3.6-6.2l-10.8-5.3V1070l9,3.5l1.8-6.2h12.6l0.9-6.2h2.7
		l7.2,1.8l2.7,7.1l26.1,5.3l9,10.6h7.2l4.5,10.6l27.9,4.4l16.2,11.5l8.1,14.2l0.9,16.8h-7.2l-0.9,13.3l-7.2,6.2l9.9,6.2l-4.5,11.5
		l-5.4,16.8l-6.3-2.7l-9.9-6.2L679,1201l-4.5-0.9l-0.9-6.2h-5.4l-6.3-9.7l-8.1-0.9l6.3,8l-7.2,0.9l-9.9,6.2l-0.9-9.7H634l-5.4,4.4
		l-4.5-7.1l-8.1-0.9l-15.3,15l-20.7,0.9l-1.8,5.3l8.1,4.4l-0.9,4.4l-2.7,4.4l-11.7,9.7h-9l-4.5-5.3h-13.5l-4.5-8l9-9.7l-11.7-2.7
		l-2.7-9.7v-16.8l-6.3-4.4l5.4-5.3l14.4,10.6l-5.4-9.7l-9.9-15l0.9-12.4h-2.7l-4.5-8l-7.2-6.2l-21.6-0.9l-0.9-3.5l5.4-4.4h6.3
		l0.9-3.5l-9.9-8.9L494.7,1090.3L494.7,1090.3z"/>
	<path id="path6099" class="st1" d="M597.2,1312.4l0.9-5.3l-12.6-7.1l-6.3-15.9l-18-17.7l12.6,0.9l7.2-17.7l1.8-9.7l-9-3.5l-10.8,8
		l-1.8-1.8l2.7-8v-4.4h5.4l16.2-10.6l1.8-8l-9-5.3l1.8-6.2l17.1,0.9l17.1-14.2l8.1,0.9l6.3,5.3l5.4-4.4l6.3,0.9l1.8,9.7l8.1-5.3
		l9.9-0.9l-5.4-9.7l5.4,0.9l7.2,10.6h4.5l2.7,7.1h3.6l3.6,13.3l-4.5,15l-11.7,6.2c0,0,3.6,8,0,8c-3.6,0-11.7,0-11.7,0l-5.4,19.5
		l10.8,6.2l4.5-8l6.3-3.5l11.7,7.1l4.5,4.4l9.9-8.9l11.7,6.2l-4.5,3.5l-0.9,8.9l11.7,3.5l-4.5,1.8v11.5h-9.9l-3.6,8l-10.8,4.4v8
		l-3.6,0.9v4.4l-7.2,5.3l-3.6,14.2l-3.6,5.3l-0.9,3.5l-9,1.8h-12.6l-1.8,9.7h-2.7l-9.9-6.2l-14.4,0.9l-12.6-7.1l-1.8-6.2l8.1-7.1
		l-13.5-8.9L597.2,1312.4L597.2,1312.4z"/>
	<path id="path3189" class="st1" d="M592.2,939.4l-20.3,6.3l-12.7,1.3l1.3,12.5l11.4,13.8l15.3,13.8l1.3,7.5l5.1,6.3l-1.3,12.5
		l14,18.8l15.3,10l15.3,3.8l6.4,7.5h-14l10.2,10l6.4-3.8l6.4,12.5l22.9,6.3l7.6-6.3v-13.8l16.5-2.5l11.4-5l29.2,5l-7.6-21.3
		l12.7-13.8l-25.4-5l-8.9-11.3l-6.4-13.8l-8.9-5l-6.4-16.3l-12.7-6.3l10.2-8.8l-24.1-1.3l-2.5-10l-6.4-2.5l-12.7,12.5l-3.8-2.5
		l-8.9,10l-3.8-6.3l-5.1,11.3l-7.6-2.5l-6.4-5l-3.8,5l-5.1-7.5L592.2,939.4L592.2,939.4z"/>
	<path id="path4160" class="st1" d="M674.8,1078.3l6.4-7.5v-12.5l21.6-2.5l7.6-5l28,6.3l-6.4-22.5l12.7-11.3l-21.6-6.3l-6.4-1.3
		L704,992l-10.2-5l-3.8-16.3l-14-8.8l10.2-7.5l-21.6-2.5l1.3-6.3v-7.5l10.2,7.5l11.4-8.8l15.3,7.5l11.4-5l7.6,12.5l10.2-5l10.2-2.5
		l3.8,6.3l6.4-18.8l11.4,17.5l-10.2,8.8l8.9,2.5l19.1,2.5l1.3,23.8l10.2-2.5l6.4,6.3h8.9l6.4-5h6.4l1.3,10v8.8l-2.5,7.5l11.4,32.5
		l5.1,5l-5.1,2.5l-21.6,10l8.9,15l-3.8,13.8l-11.4-10l-3.8,6.3l-3.8,16.3l-8.9-2.5l5.1-15l-11.4-6.3l-6.4-7.5l-19.1-3.8l-7.6,11.3
		l-1.3,6.3l-1.3,17.5l-6.4,7.5l-8.9-5l-1.3,10l-3.8,6.3l-12.7-6.3l-1.3-11.3l-3.8-12.5l-10.2-6.3L674.8,1078.3L674.8,1078.3z"/>
	<path id="path5131" class="st1" d="M811.1,1293.9l-18,5.3l-10.8,7.1l-3.6,8.9l-12.3-9.1l-9.3-12.1l5.4-10.6l7.2-10.6l-10.8-10.6
		l-9-15.9l-12.6-8.8l-5.4-23l16.2-12.4l12.6-23l10.8-15.9l18,1.8l16.2,12.4l7.2,12.4h14.4h12.6l5.4,12.4l1.8,12.4l5.4,19.5
		l-7.2,15.9l-10.6,8l6.9,10.7l-23.3,6L811.1,1293.9L811.1,1293.9z"/>
	<path id="path6102" class="st1" d="M707.8,1142.2l16.5,1.3l10.2,8.8l11.4,5l25.4,7.5l-5.1,8.8l-17.8,28.8l-16.5,11.3l3.8,22.5
		l15.3,11.3l7.6,17.5l12.7,8.8l-14,18.8l10.2,8.8l3.8,7.5l-6.4,5h-14l-15.3-3.8l1.3-16.3l1.3-15l-6.4-2.5l-3.8,6.3h-16.5l-10.2-6.3
		v-5l6.4-2.5l-11.4-7.5l-10.2,8.8l-12.7-10h-7.6l-7.6,10l-11.4-7.5l7.6-18.8l15.3,1.3l-2.5-7.5l11.4-6.3l3.8-16.3l-6.4-11.3
		l6.4-12.5l17.8,7.5l6.4-26.3l-5.1-10l6.4-5L707.8,1142.2L707.8,1142.2z"/>
	<path id="path2229" class="st1" d="M705.3,941.9l20.3-17.5l-2.5-10h5.1v-7.5l7.6,7.5l7.6-1.3l-1.3-21.3l3.8-13.8l17.8-7.5
		l-2.5-11.3l11.4-5l-3.8-3.8l7.6-2.5l8.9-1.3l3.8-7.5l7.6,8.8l7.6-1.3l5.1,3.8l3.8-21.3l12.7-1.3l3.8,5l15.3,6.3v6.3l10.2,10h11.4
		l2.5-3.8h10.2l14,8.8l7.6,3.8l-7.6,5l1.3,11.3l5.1,10l-3.8,8.8l-1.3,7.5l7.6,7.5l-14,2.5l-5.1-5l-3.8,3.8l5.1,2.5l2.5,23.8l-6.4,15
		l-6.4,1.3l3.8,6.3l-7.6,12.5l-10.2,7.5l-6.4-5l-12.7-15l-1.3,6.3l-7.6-1.3l-10.2,21.3l-6.4-5l-5.1,3.8l-10.2,2.5l-7.6-7.5
		l-10.2,2.5v-25H765l-10.2-3.8l8.9-10l-6.4-10l-3.8-1.3l-7.6,13.8l-3.8-7.5l-10.2,5l-8.9,5L705.3,941.9L705.3,941.9z"/>
	<path id="path2231" class="st1" d="M860.3,985.7l12.7-11.3l5.1-7.5l-5.1-8.8h7.6l5.1-13.8v-13.8l-2.5-12.5l-6.4-3.8l5.1-3.8
		l6.4,7.5l11.4-2.5h3.8l-7.6-8.8l3.8-16.3l-3.8-8.8v-12.5l5.1-5l7.6,1.3l8.9-7.5l11.4,18.8l8.9,3.8l6.4,10l12.7,5l1.3,3.8l-7.6,3.8
		l6.4,7.5l-8.9,2.5l14-1.3l7.6,8.8l11.4-3.8l2.5,12.5l7.6,3.8l-2.5,3.8l-7.6,12.5l3.8,11.3l-6.4,2.5l-7.6,20l-5.1,3.8l-2.5,6.3
		l-1.3,2.5l-16.5-1.3l-8.9,3.8H929v-2.5l-8.9-1.3l-3.8,2.5l-1.3,16.3l-7.6,12.5l-11.4-10l-1.3-6.3l-2.5,8.8l-10.2-2.5l-3.8-3.8
		l7.6-3.8l-3.8-8.8l-8.9,3.8l-2.5,6.3l-3.8-7.5l8.9-12.5L860.3,985.7L860.3,985.7z"/>
	<path id="path3206" class="st1" d="M817.1,1077.1l-11.4-17.5l29.2-10l-15.3-36.3l3.8-8.8v-11.3l8.9-23.8l7.6,2.5l1.3-6.3l15.3,18.8
		l17.8,7.5l-8.9,8.8l2.5,7.5l14-8.8l5.1,6.3l-8.9,8.8l12.7,3.8l15.3,5l-1.3,5l-3.8,11.3l-8.9,7.5l-2.5,11.3l-8.9-2.5h-6.4l-2.5,8.8
		v12.5l-16.5,7.5l-6.4,6.3l-6.4,7.5l-10.2-1.3v-7.5l-8.9,6.3l-7.6-6.3L817.1,1077.1L817.1,1077.1z"/>
	<path id="path2235" class="st1" d="M723,1125.7l5.4-19.5l10.8,5.3l7.2-8.8v-15.9l9-19.5l18,5.3l18,12.4l-5.4,17.7l10.8,1.8
		l5.4-19.5l21.6,14.2l18,3.5l3.6,8.8l7.2,5.3v12.4l-1.8,10.6l-9,14.2l-3.6,14.2l-12.6-14.2h-23.4l-18-5.3h-14.4l-16.2-3.5
		L723,1125.7L723,1125.7z"/>
	<path id="path3207" class="st1" d="M793.1,1155.8l32.4,7.1l-3.6,17.7L793.1,1155.8z"/>
	<path id="path2237" class="st1" d="M848.4,1102.3l2.7,5.8l4.5,7.5l2.2,13.7l17.5-7.5l16.6-4.4l-7.6-14.2l-8.1-13.7l-16.2,0.9
		L848.4,1102.3L848.4,1102.3z"/>
	<path id="path7073" class="st1" d="M832.4,1272.3l-10.2,1.5l-6.4,11.8l5.1,10.3l14-1.5l10.2,11.8l5.1-7.3l-2.5-13.2l-5.1-8.8
		L832.4,1272.3L832.4,1272.3z"/>
	<path id="path5143" class="st12" d="M899.7,865.6l-14-12.5l-3.8-13.8l-2.5-7.5l-1.3-10l8.9-5l1.3-16.3L862.9,783l3.8-5v-6.3
		l10.2,1.3l10.2,8.8l8.9-1.3l8.9-12.5l6.4,6.3l5.1-12.5l10.2,8.8l11.4-5l8.9-12.5l6.4-10l28-5l-17.8,2.5l14-2.5h16.5l8.9,2.5
		l12.7-8.8l12.7,2.5l5.1,8.8l14-8.8l7.6-6.3h14l-2.5,10l11.4,12.5v8.8l-3.8,6.3l-1.3,3.8l-17.8,10l10.2,2.5l2.5-3.8l8.9,2.5l5.1,10
		l-1.3,6.3l-8.9,5l12.7,8.8l2.5,7.5l-8.9,1.3l-3.8,5l6.4,5v5v2.5l-8.9,2.5l-15.3,1.3l-3.8,6.3l7.6,3.8l2.5,5l-6.4,3.8l-15.3,3.8
		l-15.3,3.8l-3.8,10l-16.5-1.3l-12.7,12.5v3.8l7.6,8.8l10.2,2.5l2.5,8.8l-2.5,6.3l-6.4,5c0,0,7.6,3.8-1.3,6.3
		c-8.9,2.5-11.4,3.8-11.4,3.8l-6.4-6.3l-3.8-8.8l-11.4,1.3l-7.6-8.8h-10.2l-1.3-10l7.6-6.3l-15.3-3.8l-3.8-10l-8.9-1.3l-6.4-12.5
		l-7.6-7.5l-3.8,1.3l-2.5,2.5L899.7,865.6L899.7,865.6z"/>
	<path id="path2215" class="st12" d="M593.5,938.2l10.2-16.3l-1.3-15l-5.1-11.3l-7.6-2.5v-5l3.8-3.8l-3.8-5l2.5-15l1.3-22.5
		L575.7,823l8.9-11.3l-17.8-16.3l11.4-12.5l2.5-15l-8.9-7.5l8.9-6.3l3.8,2.5l6.4-10l11.4,3.8l1.3-6.3l5.1-8.8l3.8-6.3l2.5-6.3
		l5.1-3.8l6.4-8.8l6.4,1.3v-5l-8.9-7.5l-1.3-6.3l1.3-6.3l3.8,5l12.7-7.5l1.3-7.5l7.6,3.8l10.2,13.8l15.3-22.5l12.7-5l7.6,3.8
		l1.3,11.3h11.4v21.3l10.2,15v6.3l-6.4,8.8l-1.3,7.5l8.9,20l26.7,16.3l-6.4,2.5l-3.8,8.8l11.4,20l1.3,8.8l-3.8,6.3l8.9,22.5l8.9,3.8
		l6.4,2.5l2.5,3.8l-10.2,5v11.3l-7.6,2.5l-6.4,5l-5.1,13.8l1.3,18.8l-8.9,1.3l-5.1-5l-1.3,6.3h-3.8l1.3,8.8l-14,13.8l-10.2,6.3h-3.8
		l-11.4-7.5l-7.6,7.5h-3.8l-7.6-5v8.8l-6.4,6.3l-2.5-10l-5.1-2.5l-11.4,12.5l-7.6,2.5l-6.4,6.3l-3.8-7.5l-5.1,8.8h-7.6l-7.6-6.3
		l-2.5,3.8l-5.1-7.5L593.5,938.2L593.5,938.2z"/>
</g>
<g id="Divisional_borders">
	<path id="path5037" class="st13" d="M547.7,577.1l-4.2-3.4l-21.8,2.9l-2.5,8.4h-6.3l-4.2-5.9l-16-2.5l-9.7-10.5l-4.2,7.1l-10.1-5.9
		l-3.8,5.5l-10.9-1.3l-2.9-12.6l-9.7-3.4l-13-2.5l-5.9,4.2l-1.3,0.8l-7.1-5l2.1-2.9l-10.9-13.9l-6-3.6l-4.9-9.4l4.2-11.8l-12.6-3.8
		l-19.3,2.1l-6.7-9.7l-12.6,3.4l-12.6-9.2l0,0l0,0l0,0"/>
	<path id="path14412" class="st13" d="M848.1,1324.5l1.4-24.3l-5.7-17.1l-12.9-11.4l10-2.9l-7.1-11.4l10-7.1l10-14.3l-5.7-17.1
		l-7.1-28.6l-2.9-21.4l4.3-15.7l15.7-24.3l30-11.4l-7.1-30l-1.4-27.1l10,1.4l8.6-10l1.4-14.3l15.7-21.4l-1.4-12.9l11.4-10l14.3,7.1
		l22.9-4.3l8.6-12.9l8.6-22.9h8.6l-7.1-11.4l11.4-15.7l14.3-2.9V923l5.7-5.7v-11.4l-8.6-2.9l-10-12.9l15.7-15.7l14.3,2.9l7.1-11.4
		l27.1-4.3h1.4"/>
	<path id="path14125" class="st13" d="M640.7,1361.7l3-12.1l20.2,2l8.1-10.1l-1-11.1l12.1-12.1l2-11.1l12.1-3l1-7.1h11.1l-1-13.1
		l17.2-1l7.1-7.1l5.1,3l-3,29.3l18.2,7.1l17.2-5.1l7.1,8.1l5.1-13.1l18.2-7.1l14.1,4l14.1,8.1l16.2,13.1l18.2,7.1l17.2,8.1l8.1,8.1
		l7.1,16.2l11.1,22.2l5.1,23.2l9.1,30.3l11.1,15.2l15.2,17.2L961,1490l-2,16.2l22.2,22.2l12.1,14.1v14.1l-10.1,16.2l-1,16.2v37.4
		l3,21.2l0,0"/>
	<path id="path13840" class="st13" d="M441.7,985.9l2,32.3l2,6.1l-14.1,10.1l4,10.1l21,20l15.7-5.7l5.7,7.1l12.9,12.9l5.7,24.3
		l12.9,12.9l-5.7,1.4l-5.7,2.9v7.1h18.6l14.3,11.4l1.4,14.3l11.4,18.6l-10-5.7l-5.7,5.7l7.1,7.1l-2.9,15.7l4.3,12.9h12.9l-10,7.1
		l2.9,11.4l12.9-2.9l8.6,7.1l-1.4,14.3l11.4-7.1l11.4,4.3l-11.4,25.7h-11.4l15.7,17.1l7.1,15.7l17.1,8.6l-5.7,17.1l12.9,7.1
		l-5.7,8.6l2.9,11.4l8.6,7.1l15.7-7.1l10,8.6l1.4,30l-20,4.3v15.7h12.9l11.4,5.7l-1.4,15.7l7.1,20l-5.7,10l5.7,25.7l-17.1-15.7
		l-10-5.7l4.3,12.9l12.9,12.9l5.7,5.7h-7.1l-10,11.4v17.1l-12.9,24.3l-5.7,24.3l10,14.3l4.3,24.3l-11.4,20l7.1,15.7l-5.7,22.9
		l8.6,14.3l-1.4,10l2.9,30v1.4"/>
	<path id="path13557" class="st13" d="M603.8,451.6l-14.3-11.4l-2.9,8.6l7.1,5.7l-12.9,5.7V483l8.6,11.4l1.4,10l-7.1,11.4l-8.6-1.4
		l-8.6,7.1l-1.4,12.9l-15.7,22.9l4.3,11.4l-5.7,8.6l7.1,7.1l-7.1,5.7l7.1,1.4v7.1l-5.7,7.1l5.7,5.7l1.4,7.1l5.7,14.3l-5.7,1.4v14.3
		l7.1,10l12.9-1.4v8.6l-2.9,4.3l4.3,7.1l2.9-5.7l17.1,10l-1.4,7.1l-7.1,1.4l7.1,11.4l-1.4,17.1l-1.4,11.4l-7.1-1.4l5.7,11.4
		l-2.9,8.6l-2.9,5.7h-5.7l-7.1,4.3l5.7,11.4V783l-11.4,12.9l14.3,11.4l2.9,7.1l-7.1,5.7l15.7,21.4v17.1l-2.9,17.1l4.3,10l-5.7,4.3
		l11.4,8.6l2.9,14.3v14.3l-8.6,12.9l-25.7,5.7l-11.4-1.4l-4.3,11.4l-4.3,14.3l11.4,7.1l5.7-2.9l7.1,12.9l-5.7,1.4l-10-8.6v10
		l18.6,5.7l11.4,7.1l-18.6,7.1l-14.3-1.4l-18.6-7.1l-25.7,10l-31.4-17.1l-5.7-14.3l-17.1-20l2.9,17.1l-7.1,5.7v1.4l-15.7-1.4
		l-4.3-7.1l-17.1-22.9l-21.4,1.4l-7.1-7.1l-20,1.4l-11.4,5.7v-1.4l-4.3-7.1h-7.1l-5.7-10l2.9-15.7l-8.6-10h-15.7l-10-8.6l-5.7,8.6
		l-14.3-2.9l-15.7,1.4l-27.1-21.4l-12.9-1.4l0,0"/>
	<path id="path13274" class="st13" d="M988.1,531.6v27.1l8.6,5.7h-12.8l-4.3,5.7l12.9,4.3l-5.7,5.7l-2.9,14.3l7.1,10l-1.4,15.7
		l20,4.3l5.7,11.4l20,2.9l10,10l-1.4,8.6l4.3,10l10-11.4l8.6,8.6v8.6l-10,2.9l-4.3,14.3l17.1,7.1l12.9,4.3l4.3,11.4l-15.7,12.9V743
		l10,10l-7.1,17.1l-17.1,8.6l4.3,4.3l11.4-4.3l7.1,5.7l1.4,8.6l-5.7,5.7l10,17.1v4.3l-10,1.4l5.7,7.1v8.6l-8.6,4.3l-14.3-2.9
		l-4.3,7.1l8.6,4.3l1.4,5.7l-8.6,7.1l14.3,1.4l14.3,7.1l11.4-12.9l15.7-2.9l-1.4,10l-14.3,8.6l10,10l-1.4,5.7l-12.9-4.3l-2.9,12.9
		l11.4,7.1l-11.4,2.9l2.9,11.4l2.9,8.6l8.6,5.7l-5.7,10l1.4,7.1l0,0l0,0v1.4"/>
</g>
<g id="National_border">
	<path id="path12251_1_" class="st14" d="M1522.4,1645.9"/>
	<path id="path11192" class="st15" d="M404.9,1789.4l-9-14.2l12.6-12.4l-7.2-12.4l-1.8-19.5h-19.8l-9-24.8l-7.2-15.9l-3.6-31.9
		l-14.4-28.3l1.8-17.7l19.8-7.1l-7.2-14.2l-9-17.7l-10.8-8.9l-9-21.2v-15.9l-1.8-12.4l7.2-12.4l-9-23l-14.4-19.5l9-15.9l-14.4-12.4
		l10.8-15.9l-12.6-21.2l18-31.9l-12.6-8.8l-9-14.2l1.8-8.9l-16.2-14.2l3.6-23l3.6-10.6l-7.2-12.4l16.2-14.2l10.8-10.6l18-12.4
		l-7.2-7.1l-10.8,7.1l-9-8.9l-10.8-3.5l-21.6-8.8l-1.8,10.6h-9l-16.2-7.1l-5.4-10.6l-7.2-10.6l12.6-14.2l7.2-12.4l1.8-21.2h9
		l-7.2-14.2l-25.2-17.7l-10.8-12.4l-7.2-10.6h-12.6V1078l-10.8-3.5l9-14.2l-10.8-5.3L200,1039l-7.2-10.6l12.6-8.9l-3.6-24.8l5.4-7.1
		l10.8,8.9l19.8-12.4l12.6-7.1l-3.6-15.9l-5.4-17.7l7.2-14.2l-14.4-10.6l-5.4-28.3l5.4-8.9l9-8.9v-15.9l-7.2-15.9l-5.4-8.9
		l-10.8,8.9l-21.6,1.8l-10.8-8.9l-7.2,7.1L155,819.6L129.9,809l-21.6-19.5l-28.8-8.9l-16.2,1.8l-9-12.4l-19.8-17.7l1.8-8.9
		l-7.2-12.4l-12.6-12.4l-7.2-15.9l9-7.1l3.6-21.2l12.6-3.5v-7.1l21.6-17.7l-1.8-15.9l-12.6-8.8L58,609l10.8,1.8l10.8-5.3v14.2
		l10.8,10.6l14.4,8.9l10.8-8.9l-9-3.5l5.4-14.2h18l7.2-14.2l3.6-10.6l9-3.5l-9-10.6l9-12.4l-3.6-14.2l9-7.1l-5.4-8.8l12.6-14.2
		l18,8.8l10.8,5.3l7.2-8.9h16.2l19.8-5.3l21.6,10.6l10.8,3.5l12.6-14.2l21.6,15.9l10.8-1.8v-10.6l7.2-19.5l14.4-5.3l1.8-10.6
		l-25.2-3.5h-9l-3.6-12.4l-5.4,7.1l-16.2-15.9l-5.4-17.7l5.4-15.9l-9-12.4v-14.1l-7.2,7.1l-7.2-8.9v15.9h-7.2l-12.6,8.9h-14.4
		l-3.6-8.9l-10.8,3.5l-5.4-7.1l-14.4,3.5l-5.4-3.5L164,396.6l1.8-8.9l-14.4-1.8l-7.2-12.4l3.6-3.5v-14.2h-12.6l-12.6-14.2l-3.6-8.8
		l-10.8-1.8l-5.4-12.4l-14.4-5.3V301l-18,12.4l-7.2-7.1l-9,8.8l-7.2-3.5l-14.4-15.9l3.6-10.6l-7.2-5.3v-17.7l10.8-5.3v-12.4L58,232
		l3.6-10.6l-7.2-10.6l7.2-23l12.6-3.5l3.6-12.4h10.8l18-5.3l14.4-10.6l-9-10.6l9-17.7h10.8l14.4-15.9l9-8.8l9,7.1l9-3.5l-9-10.6
		l-1.8-14.2l-5.4-8.8l-14.4,3.5l-7.2-7.1l-9-3.5l-7.2,12.4l-7.2-3.5l-1.8-15.9l12.6-14.2V30.3l18-19.5l3.6,19.5v14.2h18l1.8,10.6
		l10.8-1.8L173,63.9h12.6l5.4,8.8l12.6-7.1l3.6,12.4l18,15.9l9-1.8l1.8,19.5l16.2-1.8v12.4v5.3h16.2l3.6,8.8l-1.8,10.6l18,12.4
		l1.8-12.4l3.6-14.2l14.4,3.5l10.8,19.5l12.6-5.3l14.4,3.5l5.4-8.8l-7.2-8.8l-7.2-7.1l-10.8,3.5l-1.8-8.8l3.6-7.1l-5.4-7.1l-5.4,5.3
		l-16.2-7.1l-5.4-15.9l14.4-12.4l10.8-7.1l7.2,12.4l18,7.1l21.6,3.5l1.8,7.1l-10.8,3.5l9,5.3l-7.2,5.3l23.4,5.3l-3.6,8.8l-14.4-1.8
		v7.1l14.4,15.9l1.8,10.6l-3.6,8.8l9,15.9l27,8.8L421,209l-9,3.5l23.4,8.8l10.8,12.4l18,3.5l10.8-17.7l5.4,10.6l7.2,7.1h18l7.2,5.3
		l-1.8,8.8l9,3.5l9-10.6l-9-5.3l1.8-12.4l14.4-7.1l10.8-1.8l-5.4-21.2l-9,12.4l-1.8-14.2l-5.4-12.4l14.4-12.4l7.2-15.9l14.4,5.3
		l-3.6,15.9L563,186l14.4-7.1l7.2,12.4l7.2,10.6l5.4,8.8l-9,7.1l14.4,12.4v12.4H617l-10.8,10.6l0,0l19.8,12.4l-7.2,8.9l-7.2,3.5
		L608,294l-5.4,3.5l10.8,23l-7.2,3.5l-3.6,10.6l9,5.3l-3.6,5.3l14.4,12.4l-7.2,15.9l5.4,17.7l-9,8.8l1.8,28.3l-7.2,14.2l-1.8,14.2
		l-3.6,8.8l7.2,7.1l-1.8,8.9l16.2,12.4l5.4-7.1l18-5.3l16.2,8.9l19.8,12.4l19.8,10.6l28.8,5.3l16.2,7.1l12.6,3.5l18-3.5l3.6,15.9
		l18-3.5l12.6,3.5c0,0,3.6-8.8,19.8-8.8c16.2,0,25.2,0,25.2,0h12.6l10.8-5.3l9,7.1v3.5l30.5-9.2l15.3,7.5l40.7,2.5l25.4-12.5h35.6
		h28l20.3-7.5l22.9,17.5l12.7-7.5l22.9,10l20.3,7.5l12.7-7.5l12.7-5l15.3,7.5l15.3,5l10.2-10l15.3-5l30.5,5l33-5h17.8l22.9-2.5
		l7.6-5l17.8,15l17.8,7.5l10.2,15l20.3,5l12.7-5l2.5,10l30.5,17.5l-2.5,15l20.3,5v17.5l-2.5,15h-10.2h-20.3l-10.2,5l-15.3-2.5
		l-15.3,7.5l10.2,15l-17.8,30l-7.6,20l-7.6,12.5l2.5,15l-10.2,12.5l-12.7,2.5l-5.1,10l2.5,15l10.2,17.5l-12.7,10l-22.9,7.5
		l-17.8-7.5l-7.6,5l10.2,15l-10.2-2.5h-10.2l-5.1,12.5l2.5,20l-5.1,17.5l-12.7,15l-10.2-7.5l-10.2-10l-17.8-7.5l-5.1,10l7.6,17.5
		l-10.2,5l-12.7-7.5l-7.6-12.5l-15.3-7.5l2.5,20l-5.1,20l-17.8,12.5l-17.8-5l-12.7-5l-20.3-7.5l-15.3,2.5l10.2,20l-5.1,17.5
		l-12.7,7.5l-12.7-5c0,0-12.7,5-17.8,15s-10.2,20-10.2,20l7.6,15l-7.6,7.5l-2.5,27.5l-15.3-2.5l-5.1,12.5l4,5.4l8.1,4l3.1,10.6
		l-5.6,9l-10.1,13l25.9,45.5l7.6,27.5l10.2,17.5l5.1,22.5l5.1,12.5v15v20l10.2,20l7.6,12.5l15.3-2.5l-7.6-15l-2.5-27.5l2.5-25
		l17.8,5l20.3,22.5v20l2.5,17.5l5.1,25l10.2,20l15.3-10l5.1,7.5l17.8-10h12.7l20.3-27.5l-0.4-3.5l8.1-0.9l3.6-8.9l-0.9-11.5
		l-1.8-10.6v-8.8l-6.3-11.5l-7.2-12.4l8.1-23.9l16.2-26.5l21.6-15.9l14.4,7.1l-0.9-20.4l7.2-10.6l-14.4-66.4l9.9-12.4h7.2l8.1,15.9
		l8.1,15.9l14.4-2.7l6.3-10.6l11.7-12.4l10.8-8.8h10.8l6.3,9.7l6.3,17.7l4.5-10.6l7.2-12.4l7.2,3.5l4.5,4.4l-4.5,5.3l-3.6,8.9
		l3.6,14.2l3.6,10.6l4.5,7.1l1.8,23.9v18.6l13.5,16.8l9,16.8l-5.4,8.8l6.3,7.1l4.5,8l-1.8,5.3l-14.4,10.6l0.9,7.1l0.9,19.5l1.8,19.5
		l4.5,7.1l6.3,9.7l-4.5,27.4l-1.8,13.3l6.3,12.4l3.6,6.2l14.4,8l7.2,4.4l-4.5,7.1l2.7,21.2l4.5,16.8l14.4,12.4l1.8,19.5l4.5,19.5
		v6.2l-8.1,4.4l9,19.5l9.9,58.4l0.9,20.4l10.8,38.9v20.4l-8.1-2.7l-6.3-4.4l4.5,13.3l10.8,43.4l4.5,20.4l5.4,15.9l-9,16.8v18.6
		l-2.7,13.3l-0.9,23.9v18.6l1.8,16.8l6.3,25.7l1.8,12.4l2.7,19.5l0.9,17.7l10.8,19.5l3.6,8l-9.9,3.5l-15.3,14.2l-5.4-2.7l-13.5-29.2
		l2.7-12.4l-7.2-4.4l-9,8.9l-9,0.9l-11.7-1.8l-8.1-6.2l-8.1-25.7l-6.3-8.8l-5.4-2.7l-14.4,22.1l-9-4.4l-9,10.6l-4.5,14.2l-11.7,3.5
		l-4.5,8.9l5.4,20.4l2.7,16.2l-12.6,13.9l11.7,18.6l11,11.9l7,12l-9,13.3l9.9,20.9l4.5,15.4l-2.7,11.5l9.2,14.3l2.5,20.2l4.5,9.7
		l2.7,5.1"/>
	<path id="path2172" class="st3" d="M39.3,249.9L39.3,249.9z"/>
	<path id="path2170" class="st3" d="M344.4,151.1L344.4,151.1z"/>
	<path id="path2173" class="st3" d="M350.7,142.3v-7.5h-3.8L350.7,142.3z"/>
</g>
<g id="text">
	<g id="g3232">
	</g>
	<g id="g3254">
	</g>
	<g id="g3266">
	</g>
	<g id="g3280">
	</g>
	<g id="g3302">
	</g>
	<g id="g3318">
	</g>
	<g id="g3332">
	</g>
	<g id="g3350">
	</g>
	<g id="Bangladesh">
	</g>
</g>
<g id="text3446">
	<path id="path3793" d="M710.6,1057.6h-28.4v37.7c0,1,0,1.8,0.1,2.4c0.1,0.6,0.2,1.1,0.5,1.5c0.2,0.4,0.5,0.6,0.9,0.8
		c0.4,0.2,0.8,0.3,1.4,0.4c1.3-0.1,2.5-0.5,3.8-1.2c1.3-0.7,2.4-1.6,3.5-2.6c1.1-1.1,2.1-2.3,3.1-3.6c0.9-1.4,1.7-2.8,2.4-4.4
		c0.7-1.5,1.2-3.1,1.6-4.7c0.4-1.6,0.6-3.2,0.6-4.8c0-2.4-0.9-3.6-2.8-3.6c-0.4,0-0.9,0.1-1.5,0.4c-0.6,0.3-1.3,0.8-2.1,1.6
		l-2.9-3.7c2.6-2.1,4.9-3.1,6.9-3.1c1,0,1.9,0.3,2.8,0.8c0.9,0.5,1.7,1.2,2.3,2.1c0.7,0.8,1.2,1.8,1.6,2.8c0.4,1,0.6,2,0.6,3
		c0,1.9-0.3,3.8-0.8,5.8c-0.5,2-1.2,4-2.2,5.9c-0.9,1.9-2,3.7-3.3,5.5c-1.3,1.7-2.6,3.2-4.1,4.5c-1.5,1.3-3,2.3-4.6,3.1
		s-3.2,1.1-4.8,1.1c-1.2,0-2.3-0.2-3.3-0.7c-1-0.5-1.8-1.2-2.5-2s-1.2-1.9-1.6-3.1c-0.4-1.2-0.5-2.5-0.5-3.8v-38h-10v-4.9h43.3
		V1057.6z"/>
	<path id="path3795" d="M705.3,1052.8h6.8c0.5,0.3,0.9,0.6,1.3,0.9c0.4,0.3,0.8,0.6,1.2,1c0.4,0.4,0.8,0.9,1.3,1.4
		c0.5,0.5,1,1.2,1.6,2V1045h4.9v7.8h8.4v4.9h-8.4v47.9h-4.9v-40.9c-0.6-1.7-1.5-3.1-2.7-4.3c-1.2-1.2-2.6-2.1-4.2-2.6h-5.2V1052.8z"
		/>
	<path id="path3797" d="M759.8,1066.8c-0.5,0.1-1.3,0.3-2.3,0.6c-1,0.4-2.2,0.8-3.5,1.3c-1.3,0.5-2.6,1.1-4.1,1.8
		c-1.4,0.7-2.7,1.3-3.9,2c-1.2,0.6-2.3,1.3-3.2,1.8c-0.9,0.6-1.5,1.1-1.9,1.5c1,0.2,2.2,0.5,3.4,1c1.2,0.5,2.4,1.1,3.7,1.7
		c1.3,0.7,2.5,1.4,3.7,2.3c1.2,0.8,2.3,1.7,3.4,2.6c1.1,0.9,2,1.9,2.8,2.8c0.8,1,1.4,1.9,1.9,2.9V1066.8z M764.6,1062
		c2.5,0.2,4.8,0.8,7,1.7c2.2,0.9,4.2,2.1,5.9,3.7c1.7,1.5,3.1,3.3,4.1,5.4c1,2.1,1.5,4.4,1.5,6.9c0,1-0.2,2.1-0.6,3.2
		c-0.4,1.1-0.9,2.1-1.6,3.1c-0.7,0.9-1.5,1.7-2.4,2.3c-0.9,0.6-2,0.9-3.1,0.9c-0.9,0-2-0.3-3.5-0.8c-1.4-0.5-2.8-1.4-4.2-2.7l3-3.7
		c1.8,1.5,3.1,2.3,4,2.3c0.5,0,1-0.2,1.5-0.5c0.5-0.3,0.8-0.8,1.1-1.3c0.3-0.5,0.5-1.1,0.7-1.7c0.2-0.6,0.2-1.2,0.2-1.7
		c0-1.7-0.4-3.3-1.2-4.8c-0.8-1.5-1.9-2.8-3.1-3.9c-1.3-1.1-2.7-2-4.3-2.7c-1.6-0.6-3.2-1-4.8-1h-0.2v38.7h-4.9v-8.3
		c-0.4-1-1-2.2-1.9-3.4s-1.9-2.5-3.2-3.8c-1.2-1.3-2.6-2.5-4.1-3.7c-1.5-1.2-3-2.3-4.5-3.2c-1.5-0.9-3-1.7-4.5-2.4
		c-1.5-0.7-3.3-0.9-5.3-0.6l-2.5-5.1c4.1-3.3,8.4-5.9,12.8-8.1c4.4-2.1,8.8-3.8,13.2-4.9v-4.3h-33.3v-4.9h61v4.9h-22.8V1062z"/>
	<path id="path3799" d="M782,1052.8h6.8c0.5,0.3,0.9,0.6,1.3,0.9c0.4,0.3,0.8,0.6,1.2,1c0.4,0.4,0.8,0.9,1.3,1.4
		c0.5,0.5,1,1.2,1.6,2V1045h4.9v7.8h8.4v4.9h-8.4v47.9h-4.9v-40.9c-0.6-1.7-1.5-3.1-2.7-4.3c-1.2-1.2-2.6-2.1-4.2-2.6H782V1052.8z"
		/>
</g>
<g id="text3475">
	<path id="path3862" d="M312.8,342.6c-0.7,0.2-1.5,0.4-2.6,0.8c-1,0.4-2.2,0.9-3.4,1.4c-1.2,0.5-2.4,1.1-3.7,1.8
		c-1.3,0.6-2.5,1.3-3.6,1.9c-1.1,0.6-2.2,1.3-3.1,1.8c-0.9,0.6-1.6,1.1-2.1,1.6c0.8,0.1,1.8,0.4,2.9,0.8c1.1,0.4,2.3,1,3.6,1.7
		c1.3,0.7,2.5,1.5,3.8,2.4c1.3,0.9,2.4,1.8,3.5,2.7c1.1,0.9,2.1,1.9,2.9,2.8c0.8,0.9,1.4,1.8,1.7,2.5V342.6z M317.7,381.6h-4.9v-8.4
		c-0.3-1-0.8-2-1.7-3.2c-0.8-1.2-1.8-2.4-3-3.7c-1.2-1.3-2.5-2.5-4-3.7c-1.4-1.2-2.9-2.3-4.4-3.3c-1.5-1-3-1.7-4.4-2.3
		c-1.4-0.6-2.8-0.9-3.9-0.9c-0.3,0-0.5,0-0.7,0c-0.2,0-0.4,0.1-0.6,0.1l-3.1-5.1c7.9-6.1,16.6-10.5,25.9-13.3v-4.1h-30.5v-4.9h42.2
		v4.9h-6.9V381.6z M300,367.4c1.5,0,2.8,0.5,3.8,1.5c1,1,1.5,2.3,1.5,3.8c0,1.6-0.5,2.9-1.5,3.8c-1,1-2.3,1.5-3.8,1.5
		c-1.6,0-2.8-0.5-3.8-1.5c-1-1-1.5-2.3-1.5-3.8c0-1.6,0.5-2.8,1.5-3.8C297.2,367.9,298.4,367.4,300,367.4z"/>
	<path id="path3864" d="M338.8,348.8c-1.6,0-3-0.3-4.4-0.9c-1.3-0.6-2.5-1.4-3.5-2.3c-1-1-1.8-2.2-2.3-3.5c-0.5-1.3-0.8-2.8-0.8-4.3
		c0-2.7,0.8-4.8,2.4-6.2c1.6-1.4,3.8-2.2,6.5-2.2c1.6,0,3.1,0.3,4.4,0.8c1.4,0.5,2.6,1.3,3.6,2.2c1,1,1.8,2.1,2.4,3.4
		c0.6,1.3,0.9,2.8,0.9,4.3c0,2.8-0.8,4.9-2.5,6.4C344,348.1,341.7,348.8,338.8,348.8z M352.4,381.6l-25.9-25.3l4-4l25.8,25.1
		L352.4,381.6z M343.3,340.1c0-1.7-0.6-3.1-1.7-4.2c-1.1-1.1-2.5-1.6-4.2-1.6c-3.2,0-4.8,1.3-4.8,4c0,0.8,0.2,1.5,0.5,2.2
		c0.4,0.7,0.8,1.3,1.4,1.8c0.6,0.5,1.2,0.9,1.9,1.2c0.7,0.3,1.5,0.4,2.3,0.4C341.8,343.9,343.3,342.6,343.3,340.1z"/>
	<path id="path3866" d="M383.1,338.5c-1.2-1-2.3-1.7-3.3-2.2c-1-0.5-1.9-0.9-2.7-1.1c-0.8-0.3-1.5-0.4-2.1-0.4
		c-0.6,0-1.2-0.1-1.6-0.1c-0.7,0-1.5,0.1-2.5,0.3c-0.9,0.2-1.9,0.5-2.9,0.9c-1,0.4-2,1-2.9,1.7c-0.9,0.7-1.7,1.5-2.4,2.5
		c1.5,0,2.7,0.1,3.8,0.4c1,0.3,1.9,0.7,2.7,1.4c0.8,0.7,1.4,1.6,1.9,2.8c0.5,1.2,1,2.6,1.5,4.4c1.5-1.4,3.1-3,4.8-4.7
		C379.2,342.7,381.1,340.7,383.1,338.5L383.1,338.5z M396.4,321.1v7.8h8.1v4.9h-8.1v47.9h-4.9V352c0-0.2-0.1-0.5-0.3-1.1
		c-0.2-0.5-0.5-1.2-0.9-1.8c-0.4-0.7-0.8-1.4-1.2-2.2c-0.4-0.8-0.9-1.5-1.3-2.2c-0.4-0.7-0.8-1.2-1.1-1.7c-0.3-0.5-0.5-0.8-0.7-0.9
		c-1.7,1.8-4,4.3-7,7.3c-2.9,3.1-6.5,6.7-10.7,10.9l-3.4-3.2c2.3-2.5,3.5-4.7,3.5-6.8c0-0.7-0.1-1.4-0.3-2.2c-0.2-0.7-0.5-1.3-1-1.9
		c-0.4-0.6-0.9-1-1.5-1.3c-0.6-0.3-1.2-0.5-2-0.5c-0.1,0-1.6,0.3-4.5,0.9l-3.3-3.4c0.3-1.5,1.1-3.1,2.2-4.5c1.1-1.5,2.5-2.8,4-3.9
		c1.5-1.1,3.2-2.1,5-2.8c1.8-0.7,3.5-1,5.2-1c8.3,0,14.7,4.1,19.2,12.3v-21H396.4z"/>
	<path id="path3868" d="M384.6,388c0.5,0,1.1-0.1,1.6-0.3c0.5-0.2,1-0.4,1.5-0.8c0.5-0.3,0.9-0.7,1.2-1.2c0.4-0.5,0.6-1,0.8-1.5
		c-0.7-0.6-1.5-1.1-2.3-1.3c-0.8-0.3-1.7-0.4-2.5-0.4c-0.5,0-0.9,0-1.5,0.1c-0.5,0.1-1,0.3-1.4,0.5c-0.4,0.2-0.7,0.5-1,0.9
		c-0.3,0.4-0.4,0.9-0.4,1.4c0,0.9,0.3,1.5,1,1.9C382.5,387.8,383.4,388,384.6,388z M394.8,372.4c0.6,1.9,1.1,3.6,1.5,4.9
		s0.5,2.4,0.5,3.1c0,0.1,0,0.4-0.1,0.9c-0.1,0.5-0.2,1.1-0.3,1.9c1.1,0.9,2.1,1.7,3,2.4c0.9,0.7,1.6,1.3,2.3,1.9
		c0.7,0.6,1.3,1.2,1.8,1.8c0.6,0.6,1.1,1.3,1.7,2c0.6,0.7,1.2,1.5,1.9,2.4c0.7,0.9,1.5,2,2.4,3.2l-3.8,2.9
		c-3.6-5.3-7.6-9.4-11.8-12.3c-1.8,2.2-3.6,3.6-5.4,4.3c-1.8,0.7-3.7,1-5.6,1c-1,0-1.9-0.2-2.8-0.6c-0.9-0.4-1.6-1-2.2-1.7
		c-0.6-0.7-1.1-1.5-1.5-2.4c-0.3-0.9-0.5-1.9-0.5-3c0-1,0.3-2,0.8-3c0.5-0.9,1.2-1.7,2-2.4c0.8-0.7,1.8-1.2,2.9-1.6
		c1.1-0.4,2.3-0.6,3.5-0.6c0.6,0,1.5,0.2,2.6,0.6c1.1,0.4,2.5,1,4.2,1.8l0.1-0.9c0-0.8-0.4-2.3-1.1-4.2L394.8,372.4z"/>
	<path id="path3870" d="M433.2,342.6c-0.7,0.2-1.5,0.4-2.6,0.8c-1,0.4-2.2,0.9-3.4,1.4c-1.2,0.5-2.4,1.1-3.7,1.8
		c-1.3,0.6-2.5,1.3-3.6,1.9c-1.1,0.6-2.2,1.3-3.1,1.8c-0.9,0.6-1.6,1.1-2.1,1.6c0.8,0.1,1.8,0.4,2.9,0.8c1.1,0.4,2.3,1,3.6,1.7
		c1.3,0.7,2.5,1.5,3.8,2.4c1.3,0.9,2.4,1.8,3.5,2.7c1.1,0.9,2.1,1.9,2.9,2.8c0.8,0.9,1.4,1.8,1.7,2.5V342.6z M438,381.6h-4.9v-8.4
		c-0.3-1-0.8-2-1.7-3.2c-0.8-1.2-1.8-2.4-3-3.7c-1.2-1.3-2.5-2.5-4-3.7c-1.4-1.2-2.9-2.3-4.4-3.3c-1.5-1-3-1.7-4.4-2.3
		c-1.4-0.6-2.8-0.9-3.9-0.9c-0.3,0-0.5,0-0.7,0c-0.2,0-0.4,0.1-0.6,0.1l-3.1-5.1c7.9-6.1,16.6-10.5,25.9-13.3v-4.1h-30.5v-4.9h42.2
		v4.9H438V381.6z M420.3,367.4c1.5,0,2.8,0.5,3.8,1.5c1,1,1.5,2.3,1.5,3.8c0,1.6-0.5,2.9-1.5,3.8c-1,1-2.3,1.5-3.8,1.5
		c-1.6,0-2.8-0.5-3.8-1.5c-1-1-1.5-2.3-1.5-3.8c0-1.6,0.5-2.8,1.5-3.8C417.5,367.9,418.7,367.4,420.3,367.4z"/>
</g>
<g id="text3536">
	<path id="path3769" d="M718.4,1512c-0.7,0.2-1.5,0.4-2.6,0.8c-1,0.4-2.2,0.9-3.4,1.4c-1.2,0.5-2.4,1.1-3.7,1.8
		c-1.3,0.6-2.5,1.3-3.6,1.9c-1.1,0.6-2.2,1.3-3.1,1.8c-0.9,0.6-1.6,1.1-2.1,1.6c0.8,0.1,1.8,0.4,2.9,0.8c1.1,0.4,2.3,1,3.6,1.7
		c1.3,0.7,2.5,1.5,3.8,2.4c1.3,0.9,2.4,1.8,3.5,2.7c1.1,0.9,2.1,1.9,2.9,2.8c0.8,0.9,1.4,1.8,1.7,2.5V1512z M723.3,1551h-4.9v-8.4
		c-0.3-1-0.8-2-1.7-3.2c-0.8-1.2-1.8-2.4-3-3.7c-1.2-1.3-2.5-2.5-4-3.7c-1.4-1.2-2.9-2.3-4.4-3.3c-1.5-1-3-1.7-4.4-2.3
		c-1.4-0.6-2.8-0.9-3.9-0.9c-0.3,0-0.5,0-0.7,0c-0.2,0-0.4,0.1-0.6,0.1l-3.1-5.1c7.9-6.1,16.6-10.5,25.9-13.3v-4.1h-30.5v-4.9h42.2
		v4.9h-6.9V1551z"/>
	<path id="path3771" d="M737,1551v-47.9h-8.2v-4.9h6.9l-4-5.5c0.3-2.2,1.1-4.3,2.3-6.3c1.2-2,2.7-3.7,4.5-5.2c1.8-1.5,3.8-2.7,6-3.5
		c2.2-0.9,4.4-1.3,6.7-1.3c5.6,0,11,1.4,16.3,4.3c1.8,1,3.9,2.3,6.2,4c2.3,1.7,4.9,3.7,7.7,6.1l-3.3,3.6c-4.6-4.4-9.1-7.7-13.6-9.9
		c-4.5-2.2-8.8-3.2-13.1-3.2c-1.6,0-3.3,0.3-4.9,0.9c-1.7,0.6-3.2,1.5-4.6,2.6c-1.4,1.1-2.6,2.3-3.5,3.8c-1,1.4-1.5,2.8-1.5,4.1
		l4.4,5.6h7.6v4.9h-7v47.9H737z"/>
	<path id="path3773" d="M778.5,1512c-0.7,0.2-1.5,0.4-2.6,0.8c-1,0.4-2.2,0.9-3.4,1.4c-1.2,0.5-2.4,1.1-3.7,1.8
		c-1.3,0.6-2.5,1.3-3.6,1.9c-1.1,0.6-2.2,1.3-3.1,1.8c-0.9,0.6-1.6,1.1-2.1,1.6c0.8,0.1,1.8,0.4,2.9,0.8c1.1,0.4,2.3,1,3.6,1.7
		c1.3,0.7,2.5,1.5,3.8,2.4c1.3,0.9,2.4,1.8,3.5,2.7c1.1,0.9,2.1,1.9,2.9,2.8c0.8,0.9,1.4,1.8,1.7,2.5V1512z M783.3,1551h-4.9v-8.4
		c-0.3-1-0.8-2-1.7-3.2c-0.8-1.2-1.8-2.4-3-3.7c-1.2-1.3-2.5-2.5-4-3.7c-1.4-1.2-2.9-2.3-4.4-3.3c-1.5-1-3-1.7-4.4-2.3
		c-1.4-0.6-2.8-0.9-3.9-0.9c-0.3,0-0.5,0-0.7,0c-0.2,0-0.4,0.1-0.6,0.1l-3.1-5.1c7.9-6.1,16.6-10.5,25.9-13.3v-4.1H748v-4.9h42.2
		v4.9h-6.9V1551z M765.6,1536.7c1.5,0,2.8,0.5,3.8,1.5s1.5,2.3,1.5,3.8s-0.5,2.9-1.5,3.8s-2.3,1.5-3.8,1.5c-1.6,0-2.8-0.5-3.8-1.5
		s-1.5-2.3-1.5-3.8s0.5-2.8,1.5-3.8C762.8,1537.2,764,1536.7,765.6,1536.7z"/>
	<path id="path3775" d="M796.9,1518c0.4,0.4,1,0.8,1.6,1.2c0.6,0.4,1.4,0.6,2.2,0.6c0.6-0.1,1.2-0.4,1.8-0.8c0.6-0.4,1-0.9,1.4-1.5
		c0.4-0.6,0.7-1.2,0.9-1.9c0.2-0.7,0.3-1.4,0.3-2c0-1.6-0.3-3.1-1-4.3s-1.5-2.4-2.6-3.2c-1.1-0.9-2.4-1.6-3.8-2.1
		c-1.4-0.5-2.9-0.7-4.5-0.7c-1.3,0-2.6,0.2-3.9,0.6v-5.3c0.7-0.1,1.4-0.1,2-0.2c0.6,0,1.3,0,2,0c1.8,0,3.5,0.2,5.2,0.5
		c1.7,0.3,3.2,0.9,4.5,1.7c1.4,0.8,2.5,1.8,3.5,3.1c0.9,1.3,1.6,2.9,1.9,4.9c0.8-3,2-5.2,3.6-6.7s3.7-2.2,6.2-2.2
		c1.3,0.1,2.5,0.5,3.4,1c1,0.5,1.8,1.2,2.6,1.9c0.8,0.8,1.5,1.7,2.2,2.6c0.7,1,1.5,2.1,2.4,3.2v-17.7h4.9v7.8h7.6v4.9h-7.6v47.9
		h-4.9v-33.1c0-0.5-0.2-1.3-0.5-2.1c-0.3-0.9-0.7-1.8-1.3-2.8c-0.6-1-1.2-2-1.9-3.1c-0.7-1-1.5-2-2.3-2.8c-0.8-0.8-1.7-1.5-2.5-2
		c-0.9-0.5-1.7-0.8-2.5-0.8c-1.6,0-2.8,0.8-3.8,2.3c-1,1.5-1.5,3.9-1.5,7.2c0,0.7,0.2,1.4,0.5,2.1c0.3,0.7,0.8,1.2,1.3,1.7
		c0.5,0.5,1.2,0.9,1.8,1.1s1.4,0.4,2.2,0.4c1,0,2.1-0.4,3-1.1l2.3,4.1c-1,0.7-1.9,1.2-2.9,1.5c-0.9,0.3-1.8,0.4-2.6,0.4
		c-1.9,0-3.6-0.4-5.1-1.3c-1.5-0.9-2.8-2.3-3.8-4.2c-0.5,1-1,1.8-1.7,2.6c-0.7,0.8-1.4,1.4-2.2,1.9c-0.8,0.5-1.6,1-2.4,1.2
		c-0.8,0.3-1.6,0.4-2.4,0.4c-1.1,0-2.1-0.2-3.1-0.6s-2-1.1-3-2.2L796.9,1518z"/>
	<path id="path3777" d="M835.6,1498.3h6.8c0.5,0.3,0.9,0.6,1.3,0.9c0.4,0.3,0.8,0.6,1.2,1c0.4,0.4,0.8,0.9,1.3,1.4
		c0.5,0.5,1,1.2,1.6,2v-13.1h4.9v7.8h8.4v4.9h-8.4v47.9h-4.9v-40.9c-0.6-1.7-1.5-3.1-2.7-4.3s-2.6-2.1-4.2-2.6h-5.2V1498.3z"/>
	<path id="path3779" d="M875.3,1537c-2.1,0-3.9-0.4-5.5-1.2s-2.8-1.8-3.8-3.1s-1.8-2.7-2.3-4.4c-0.5-1.6-0.7-3.3-0.7-5.1
		c0-1.7,0.3-3.4,0.8-5.1c0.5-1.7,1.3-3.1,2.3-4.4c1-1.3,2.3-2.3,3.8-3.1s3.3-1.2,5.4-1.2c3.8,0.1,6.8,1.8,9,5.2
		c0.5-1.6,1.3-2.8,2.5-3.6c1.2-0.8,2.4-1.2,3.6-1.2c0.8,0,1.6,0.1,2.4,0.4c0.8,0.3,1.5,0.7,2.2,1.2c0.7,0.5,1.3,1.1,1.8,1.8
		c0.5,0.7,1,1.5,1.3,2.4v-12.7h-39.9v-4.9h52.1v4.9h-7.4v47.9h-4.9v-26.1c-0.5-2.2-1-3.8-1.5-4.9c-0.5-1.1-1.2-2.1-1.9-2.9
		c-0.8-0.9-1.6-1.5-2.4-1.8c-0.8-0.3-1.4-0.5-1.8-0.5c-0.6,0-1.2,0.2-1.6,0.5c-0.4,0.4-0.8,0.8-1.1,1.4c-0.3,0.5-0.5,1.2-0.6,1.8
		c-0.1,0.7-0.1,1.6-0.1,2.7c0,1.1,0.1,1.8,0.1,2.1l-4,0.8c0-1.1-0.2-2.4-0.6-3.9c-0.4-1.5-0.9-2.6-1.6-3.3c-0.7-0.8-1.5-1.4-2.4-1.8
		c-0.9-0.5-1.9-0.7-3-0.7c-1.3,0-2.4,0.3-3.4,0.8c-1,0.5-1.7,1.2-2.4,2c-0.6,0.8-1.1,1.8-1.4,2.9c-0.3,1.1-0.5,2.2-0.5,3.3
		c0,1.2,0.2,2.3,0.5,3.4c0.3,1.1,0.8,2.1,1.5,3s1.5,1.5,2.5,2.1c1,0.5,2.2,0.8,3.5,0.8c0.2,0,0.4,0,0.6,0c0.2,0,0.4,0,0.6-0.1
		l-1.6,4.5L875.3,1537z"/>
</g>
<g id="text3540">
	<path id="path3758" d="M1098.7,1366.2c1.1,1.5,2.1,2.7,3,3.6c0.8,0.9,1.7,1.7,2.6,2.3s1.9,1,3.1,1.4c1.2,0.3,2.7,0.6,4.5,0.9
		c1.7,0.3,3.1,0.5,4.2,0.8c1.2,0.3,2,0.6,2.6,0.9c1,0.6,1.8,1.4,2.6,2.5c0.8,1,1.1,2.4,1.1,3.9c0,2.5-0.8,5.1-2.4,7.9
		s-3.9,5.7-6.8,8.8c-2.8,3-5.5,5.2-8,6.8c-2.5,1.5-4.9,2.3-7.1,2.3h-0.2c-0.9-0.5-1.7-1.1-2.4-1.7s-1.3-1.2-1.8-1.8v-44.2h-9.3v-4.9
		h43.4v4.9h-29.3L1098.7,1366.2z M1098.7,1403.3c1.5,0,3.1-0.7,5-2c1.8-1.3,4-3.3,6.6-6c5-5.4,7.5-9.6,7.5-12.6
		c0-1.4-1.1-2.4-3.4-3.1c-1.3-0.3-2.7-0.6-4.1-1s-2.9-0.8-4.3-1.2c-1.4-0.5-2.7-1.1-4-1.7c-1.2-0.7-2.3-1.5-3.2-2.6L1098.7,1403.3z"
		/>
	<path id="path3760" d="M1164.8,1394c0,1.8-0.4,3.4-1.2,4.9c-0.8,1.5-1.9,2.8-3.2,3.8c-1.3,1.1-2.8,1.9-4.5,2.5
		c-1.7,0.6-3.4,0.9-5.2,0.9c-4.4,0-8.4-1.7-12.1-5.1s-6.9-8.7-9.9-15.8l4.4-1.9c4.8,12,10.8,17.9,17.9,17.9c1.1,0,2.2-0.2,3.3-0.5
		c1.1-0.4,2-0.8,2.9-1.5s1.5-1.4,2.1-2.2s0.8-1.7,0.8-2.6c0-2.5-0.8-4.2-2.4-5.1c-3.4,2.6-6.6,4-9.5,4c-3,0-5.2-0.9-6.8-2.6
		c-1.5-1.8-2.3-4.1-2.3-7.1v-23.1h-12.3v-4.9h36.2c0-1.1,0-1.7,0.1-1.9c-0.3-3.6-3.2-5.4-8.8-5.6l-14.3,1c-1.6,0-3.2-0.2-4.6-0.7
		c-1.4-0.5-2.6-1.2-3.7-2c-1.1-0.9-1.9-2-2.5-3.2c-0.6-1.3-0.9-2.7-0.9-4.3c0-1,0.3-2.1,0.8-3.2c0.5-1.1,1.3-2.3,2.4-3.6l4,2.8
		c-0.3,0.3-0.6,0.6-0.8,1c-0.3,0.4-0.5,0.9-0.7,1.4c-0.2,0.5-0.4,1-0.5,1.5s-0.2,0.9-0.2,1.2c0,3,3.1,4.5,9.2,4.5l14.6-1.1
		c1.6,0,3,0.3,4.4,0.9c1.4,0.6,2.6,1.4,3.6,2.4s1.8,2.2,2.4,3.6c0.6,1.4,0.9,2.9,0.9,4.4l-0.1,0.9h4.5v4.9h-28.5v22.8
		c0,1.3,0.1,2.3,0.4,3s0.5,1.2,0.9,1.5c0.4,0.3,0.7,0.5,1.1,0.6c0.4,0.1,0.7,0.1,1,0.1c1.8,0,3.4-0.5,5.1-1.4
		c1.6-0.9,3.1-2.2,4.3-3.7c1.3-1.5,2.3-3.2,3-5.2c0.8-1.9,1.1-3.9,1.1-5.8c0-2.8-1-4.2-2.9-4.2c-0.8,0-2.1,0.5-3.8,1.6l-2.5-3.3
		c2.6-2.1,4.9-3.1,6.9-3.1c1.1,0,2.1,0.3,3,0.9c0.9,0.6,1.6,1.4,2.2,2.4s1.1,2.2,1.4,3.5c0.3,1.3,0.5,2.7,0.5,4.2
		c0,0.7-0.1,1.6-0.3,2.6s-0.5,2.1-0.9,3.2c-0.4,1.1-0.8,2.1-1.3,3.1c-0.5,1-0.9,1.8-1.4,2.4c1,1.3,1.9,2.6,2.4,4
		C1164.5,1391,1164.8,1392.5,1164.8,1394L1164.8,1394z"/>
	<path id="path3762" d="M1198.2,1405.5c-0.4,0-1,0.1-1.8,0.2c-0.8,0.1-1.6,0.2-2.5,0.4c-0.9,0.1-1.8,0.3-2.6,0.4
		c-0.8,0.1-1.4,0.2-1.8,0.2c-2.6,0-4.8-0.3-6.8-1c-1.9-0.7-3.6-1.6-4.9-2.8s-2.3-2.6-3-4.2c-0.7-1.6-1-3.4-1-5.3
		c0-1.2,0.2-2.5,0.5-3.9s0.8-2.7,1.4-4.2l4.3,1.2c-0.4,1.3-0.8,2.5-1,3.5c-0.2,1-0.3,1.8-0.3,2.4c0,1.7,0.2,3.1,0.7,4.3
		c0.4,1.2,1.2,2.2,2.2,2.9s2.4,1.3,4.1,1.7s3.7,0.5,6.2,0.5c0.5,0,1.1-0.1,1.7-0.2c0.6-0.1,1.2-0.3,1.9-0.4s1.2-0.3,1.9-0.4
		c0.6-0.1,1.2-0.2,1.7-0.2c1.8,0,3.6,0.4,5.3,1.1c1.7,0.8,3.2,1.7,4.8,2.8v-29.8c-5.3-9.8-11-14.6-17-14.6c-1,0-2.1,0.2-3.3,0.7
		c-1.1,0.5-2.2,1.1-3.1,1.9c-0.9,0.8-1.7,1.7-2.3,2.7c-0.6,1-0.9,2.1-0.9,3.2c0,1,0.3,1.5,1,1.5c0.4,0,1-0.1,1.9-0.4
		c0.9-0.3,1.8-0.5,2.7-0.9c0.9-0.3,1.8-0.6,2.7-0.9c0.8-0.3,1.4-0.4,1.8-0.4c1,0,2,0.2,2.9,0.5c0.9,0.3,1.7,0.8,2.3,1.4
		c0.7,0.6,1.2,1.4,1.6,2.2c0.4,0.9,0.6,1.9,0.6,3c0,0.8-0.3,1.8-0.9,2.8c-0.6,1-1.3,2.1-2.3,3.2c-1,1.1-2.1,2.3-3.3,3.6
		c-1.3,1.3-2.6,2.5-4,3.8l-4-3l5.3-5.1c1.5-1.5,2.5-2.7,3.2-3.7s1-1.7,1.1-2.1c0-0.9-0.3-1.5-0.8-1.8c-0.5-0.3-1.3-0.5-2.3-0.5
		c-0.1,0-0.4,0.1-0.8,0.2c-0.4,0.1-0.9,0.3-1.5,0.5c-0.6,0.2-1.2,0.5-1.9,0.7c-0.7,0.3-1.3,0.5-1.9,0.7c-0.6,0.2-1.2,0.4-1.7,0.5
		c-0.5,0.1-0.9,0.2-1.2,0.2c-0.8,0-1.6-0.2-2.3-0.5s-1.3-0.8-1.7-1.3c-0.5-0.6-0.8-1.2-1.1-2s-0.4-1.5-0.4-2.4
		c0-1.8,0.4-3.5,1.2-5.1c0.8-1.6,1.9-3.1,3.2-4.3c1.3-1.2,2.9-2.2,4.6-3c1.8-0.7,3.6-1.1,5.4-1.1c2,0,3.8,0.2,5.3,0.7
		c1.5,0.5,3,1.2,4.3,2.2s2.6,2.2,3.7,3.7s2.4,3.2,3.7,5.2v-18.8h4.9v7.2h7.3v4.9h-7.3v55.6h-4.9v-5.1c-0.6-0.7-1.4-1.4-2.3-2
		c-0.9-0.6-1.8-1.2-2.8-1.7c-1-0.5-1.9-0.9-2.9-1.2C1199.9,1405.7,1199,1405.5,1198.2,1405.5L1198.2,1405.5z"/>
	<path id="path3764" d="M1215.7,1355.6h6.8c0.5,0.3,0.9,0.6,1.3,0.9c0.4,0.3,0.8,0.6,1.2,1c0.4,0.4,0.8,0.9,1.3,1.4
		c0.5,0.5,1,1.2,1.6,2v-13.1h4.9v7.8h8.4v4.9h-8.4v47.9h-4.9v-40.9c-0.6-1.7-1.5-3.1-2.7-4.3c-1.2-1.2-2.6-2.1-4.2-2.6h-5.2
		L1215.7,1355.6z"/>
	<path id="path3766" d="M1264.9,1372.4c1.8,0.6,3.6,1.7,5.2,3.2c1.6,1.5,3.1,3.5,4.5,5.9v-21.1h-22.3c1.8,0.6,3.4,1.3,4.7,1.9
		c1.3,0.7,2.4,1.5,3.4,2.4c1,0.9,1.8,2,2.5,3.2C1263.7,1369.2,1264.4,1370.7,1264.9,1372.4L1264.9,1372.4z M1279.5,1360.4v47.9h-4.9
		V1392c0-0.6-0.2-1.5-0.6-2.5c-0.4-1-0.9-2.1-1.6-3.2c-0.7-1.1-1.4-2.3-2.3-3.4c-0.9-1.1-1.8-2.1-2.7-3s-1.8-1.7-2.7-2.2
		c-0.9-0.6-1.7-0.9-2.5-0.9c-3.4,0-6,0.9-8,2.7c-2,1.8-2.9,4.4-2.9,7.7c0,5,2.7,8,8,9.1l-2.2,4.1h-0.4c-1.4,0-2.7-0.4-3.9-1.3
		c-1.2-0.9-2.3-1.9-3.3-3.2c-1-1.3-1.7-2.7-2.3-4.2s-0.8-2.9-0.8-4.2c0-8.6,4.4-13.8,13.1-15.6c-0.4-1.1-0.9-2-1.5-2.8
		c-0.6-0.8-1.4-1.5-2.5-2.1c-1.1-0.6-2.5-1.2-4.2-1.7c-1.7-0.5-3.9-1.1-6.5-1.7v-3.2h-6.2v-4.9h47.8v4.9L1279.5,1360.4z"/>
</g>
<g id="text3544">
	<path id="path3782" d="M424.3,1431.9c-0.4-1-1.2-2.2-2.2-3.4c-1-1.2-2.2-2.5-3.6-3.7c-1.4-1.2-2.9-2.5-4.5-3.6
		c-1.6-1.2-3.2-2.3-4.9-3.2c-1.6-1-3.2-1.7-4.7-2.4c-1.5-0.6-2.8-1-3.9-1.1l-1.9-4.6c1-0.1,2-0.3,3.1-0.6c1.1-0.3,2.3-0.6,3.5-1.1
		c1.2-0.4,2.3-0.9,3.4-1.5c1.1-0.6,2.1-1.3,2.9-2c0.8-0.8,1.5-1.6,2.1-2.5c0.5-0.9,0.8-1.9,0.8-2.9c0-1.7-0.8-3.3-2.5-4.9
		c-0.7,1.4-1.4,2.7-2.1,3.8c-0.7,1.1-1.5,2-2.3,2.8c-0.8,0.8-1.8,1.3-2.9,1.8c-1.1,0.4-2.4,0.7-3.9,0.8c-1.1,0-2.2-0.2-3.1-0.5
		c-1-0.3-1.8-0.8-2.6-1.4s-1.3-1.3-1.8-2.2c-0.4-0.9-0.6-1.8-0.6-2.9c0-2.3,0.7-4.2,2.1-5.8l3.8,2.2c-0.5,0.7-0.7,1.3-0.8,1.9
		s-0.2,1.1-0.2,1.4c0,0.1,0.1,0.3,0.2,0.6c0.1,0.3,0.3,0.5,0.6,0.8c0.3,0.3,0.6,0.5,1.1,0.7c0.4,0.2,0.9,0.3,1.5,0.3
		c0.7,0,1.4-0.1,2-0.3c0.6-0.2,1.3-0.7,1.9-1.5c0.7-0.8,1.4-1.8,2.2-3.3c0.8-1.4,1.8-3.4,2.9-5.8c1.1,0.5,2.2,1.1,3.3,1.9
		c1.1,0.8,2.1,1.8,3,2.9c0.9,1.1,1.7,2.3,2.2,3.5c0.6,1.3,0.9,2.5,0.9,3.7c0,1.5-0.4,2.9-1.1,4.2c-0.7,1.4-1.6,2.6-2.7,3.7
		c-1.1,1.1-2.4,2-3.7,2.8c-1.4,0.8-2.8,1.3-4.1,1.6c2.5,1,5.1,2.4,7.9,4.4c2.7,2,5.7,4.4,8.7,7.4v-44.7h4.8v7.8h8v4.9h-8v47.9h-4.8
		V1431.9z"/>
	<path id="path3784" d="M417.2,1446c0.5,0,1.1-0.1,1.6-0.3c0.5-0.2,1-0.4,1.5-0.8c0.5-0.3,0.9-0.7,1.2-1.2c0.4-0.5,0.6-1,0.8-1.5
		c-0.7-0.6-1.5-1.1-2.3-1.3c-0.8-0.3-1.7-0.4-2.5-0.4c-0.5,0-0.9,0-1.5,0.1c-0.5,0.1-1,0.3-1.4,0.5c-0.4,0.2-0.7,0.5-1,0.9
		c-0.3,0.4-0.4,0.9-0.4,1.4c0,0.9,0.3,1.5,1,1.9C415.1,1445.8,416.1,1446,417.2,1446z M427.5,1430.4c0.6,1.9,1.1,3.6,1.5,4.9
		s0.5,2.4,0.5,3.1c0,0.1,0,0.4-0.1,0.9c-0.1,0.5-0.2,1.1-0.3,1.9c1.1,0.9,2.1,1.7,3,2.4s1.6,1.3,2.3,1.9c0.7,0.6,1.3,1.2,1.8,1.8
		s1.1,1.3,1.7,2c0.6,0.7,1.2,1.5,1.9,2.4c0.7,0.9,1.5,2,2.4,3.2l-3.8,2.9c-3.6-5.3-7.6-9.4-11.8-12.3c-1.8,2.2-3.6,3.6-5.4,4.3
		c-1.8,0.7-3.7,1-5.6,1c-1,0-1.9-0.2-2.8-0.6c-0.9-0.4-1.6-1-2.2-1.7c-0.6-0.7-1.1-1.5-1.5-2.4c-0.3-0.9-0.5-1.9-0.5-3
		c0-1,0.3-2,0.8-3c0.5-0.9,1.2-1.7,2-2.4c0.8-0.7,1.8-1.2,2.9-1.6c1.1-0.4,2.3-0.6,3.5-0.6c0.6,0,1.5,0.2,2.6,0.6
		c1.1,0.4,2.5,1,4.2,1.8l0.1-0.9c0-0.8-0.4-2.3-1.1-4.2L427.5,1430.4z"/>
	<path id="path3786" d="M452.3,1425.7c-2.1,0-3.9-0.4-5.5-1.2c-1.5-0.8-2.8-1.8-3.8-3.1s-1.8-2.7-2.3-4.4c-0.5-1.6-0.7-3.3-0.7-5.1
		c0-1.7,0.3-3.4,0.8-5.1c0.5-1.7,1.3-3.1,2.3-4.4c1-1.3,2.3-2.3,3.8-3.1c1.5-0.8,3.3-1.2,5.4-1.2c3.8,0.1,6.8,1.8,9,5.2
		c0.5-1.6,1.3-2.8,2.5-3.6c1.2-0.8,2.4-1.2,3.6-1.2c0.8,0,1.6,0.1,2.4,0.4c0.8,0.3,1.5,0.7,2.2,1.2c0.7,0.5,1.3,1.1,1.8,1.8
		c0.5,0.7,1,1.5,1.3,2.4v-12.7h-39.9v-4.9h52.1v4.9H480v47.9h-4.9v-26.1c-0.5-2.2-1-3.8-1.5-4.9c-0.5-1.1-1.2-2.1-1.9-2.9
		c-0.8-0.9-1.6-1.5-2.4-1.8c-0.8-0.3-1.4-0.5-1.8-0.5c-0.6,0-1.2,0.2-1.6,0.5c-0.4,0.4-0.8,0.8-1.1,1.4c-0.3,0.5-0.5,1.2-0.6,1.8
		c-0.1,0.7-0.1,1.6-0.1,2.7c0,1.1,0.1,1.8,0.1,2.1l-4,0.8c0-1.1-0.2-2.4-0.6-3.9c-0.4-1.5-0.9-2.6-1.6-3.3c-0.7-0.8-1.5-1.4-2.4-1.8
		c-0.9-0.5-1.9-0.7-3-0.7c-1.3,0-2.4,0.3-3.4,0.8c-1,0.5-1.7,1.2-2.4,2c-0.6,0.8-1.1,1.8-1.4,2.9c-0.3,1.1-0.5,2.2-0.5,3.3
		c0,1.2,0.2,2.3,0.5,3.4c0.3,1.1,0.8,2.1,1.5,3c0.7,0.9,1.5,1.5,2.5,2.1c1,0.5,2.2,0.8,3.5,0.8c0.2,0,0.4,0,0.6,0
		c0.2,0,0.4,0,0.6-0.1l-1.6,4.5L452.3,1425.7z"/>
	<path id="path3788" d="M497.9,1427.2c-1.7-1.2-3-2.7-3.8-4.5c-0.8-1.8-1.2-3.6-1.2-5.6c0-1.9,0.3-3.8,1-5.7
		c0.7-1.9,1.6-3.6,2.8-5.1s2.7-2.7,4.4-3.6c1.7-0.9,3.6-1.4,5.7-1.4c3.1,0,5.8,0.8,8.2,2.4c2.4,1.6,4.3,4,5.9,7.2v-19.2h-36.2v-4.9
		h48.6v4.9h-7.6v47.9h-4.9v-18.2c-0.3-1.5-0.9-3.1-1.7-4.9c-0.8-1.8-1.7-3.4-2.9-4.9c-1.1-1.5-2.4-2.8-3.9-3.8c-1.5-1-3-1.5-4.7-1.5
		c-1.5,0-2.8,0.3-4.1,0.9c-1.2,0.6-2.3,1.3-3.1,2.3c-0.9,0.9-1.6,2-2,3.2s-0.7,2.5-0.7,3.7c0,1.3,0.3,2.6,0.8,3.8
		c0.5,1.2,1.3,2.4,2.4,3.4L497.9,1427.2z"/>
	<path id="path3790" d="M527.8,1386.9h6.8c0.5,0.3,0.9,0.6,1.3,0.9c0.4,0.3,0.8,0.6,1.2,1c0.4,0.4,0.8,0.9,1.3,1.4
		c0.5,0.5,1,1.2,1.6,2v-13.1h4.9v7.8h8.4v4.9h-8.4v47.9h-4.9v-40.9c-0.6-1.7-1.5-3.1-2.7-4.3c-1.2-1.2-2.6-2.1-4.2-2.6h-5.2V1386.9z
		"/>
</g>
<g id="text3548">
	<path id="path3819" d="M1138.7,754v-47.9h-8.2v-4.9h6.9l-4-5.5c0.3-2.2,1.1-4.3,2.3-6.3c1.2-2,2.7-3.7,4.5-5.2
		c1.8-1.5,3.8-2.7,6-3.5c2.2-0.9,4.4-1.3,6.7-1.3c5.6,0,11,1.4,16.3,4.3c1.8,1,3.9,2.3,6.2,4c2.3,1.7,4.9,3.7,7.7,6.1l-3.3,3.6
		c-4.6-4.4-9.1-7.7-13.6-9.9c-4.5-2.2-8.8-3.2-13.1-3.2c-1.6,0-3.3,0.3-4.9,0.9c-1.7,0.6-3.2,1.5-4.6,2.6c-1.4,1.1-2.6,2.3-3.5,3.8
		c-1,1.4-1.5,2.8-1.5,4.1l4.4,5.6h7.6v4.9h-7V754H1138.7z"/>
	<path id="path3821" d="M1189.8,730.8c-0.2-0.7-0.7-1.6-1.3-2.7c-0.6-1.1-1.4-2.2-2.2-3.3c-0.8-1.1-1.7-2-2.6-2.8
		c-0.9-0.8-1.7-1.1-2.5-1.1c-0.9,0-1.8,0.4-2.5,1.2c-0.8,0.8-1.5,1.8-2.3,2.9c-0.7,1.2-1.5,2.4-2.2,3.8c-0.7,1.4-1.5,2.6-2.4,3.8
		c-0.9,1.2-1.8,2.1-2.9,2.9c-1.1,0.8-2.3,1.2-3.7,1.2c-1.6,0-3.2-0.8-5-2.5c-1.8-1.7-3.7-4.2-5.7-7.5l4.2-2.3c0.3,0.6,0.6,1.3,1,2.2
		c0.4,0.9,0.9,1.7,1.4,2.5s1.1,1.5,1.7,2c0.6,0.6,1.3,0.8,2.1,0.8c0.6,0,1.3-0.3,2-1c0.7-0.7,1.4-1.4,2-2.4c0.6-0.9,1.1-1.8,1.6-2.8
		c0.4-0.9,0.7-1.7,0.7-2.3c-0.3-2.1-0.7-4-1.2-5.5c-0.5-1.5-1.3-2.8-2.5-3.8c-1.1-1-2.7-1.9-4.7-2.7c-2-0.8-4.6-1.5-7.9-2.2v-3.2
		h-5.3v-4.9h51.9v4.9h-7V754h-4.9L1189.8,730.8z M1162.5,706.1c1.8,0.7,3.4,1.4,4.7,2.2c1.3,0.7,2.4,1.5,3.4,2.4
		c1,0.9,1.8,2,2.5,3.3c0.7,1.3,1.4,2.9,2.1,4.8c1.9-1.8,4-2.7,6.2-2.7c2.5,0,5.3,2.2,8.4,6.5v-16.4H1162.5z"/>
	<path id="path3823" d="M1230.2,748.5c-1,1.9-2.2,3.3-3.6,4.2s-3.2,1.3-5.2,1.3c-2.7,0-5.1-0.7-7.1-2c-2-1.3-3.7-3.1-5-5.3
		s-2.3-4.6-3-7.3s-1-5.4-1-8.1c0-2.2,0.3-4.5,0.9-7c0.6-2.5,1.5-4.8,2.6-7.2c1.1-2.3,2.5-4.4,4.2-6.4c1.6-1.9,3.5-3.5,5.5-4.7h-21.3
		v-4.9h32.3v4.6c-3.2,0.9-5.9,2.3-8.3,4.1c-2.4,1.8-4.4,3.9-6,6.3c-1.6,2.4-2.9,5.1-3.7,8c-0.8,2.9-1.2,6-1.2,9.2
		c0,1.1,0.1,2.2,0.4,3.4c0.3,1.2,0.6,2.4,1.1,3.6c0.5,1.2,1,2.3,1.7,3.3c0.6,1,1.4,2,2.1,2.8c0.8,0.8,1.6,1.4,2.4,1.9
		c0.9,0.5,1.7,0.7,2.6,0.7c0.7,0,1.3,0,1.8-0.1s1-0.3,1.4-0.5c0.4-0.3,0.9-0.6,1.3-1c0.4-0.4,0.9-1,1.5-1.7
		C1227.3,746.6,1228.6,747.5,1230.2,748.5L1230.2,748.5z"/>
	<path id="path3825" d="M1241.9,740c-2.1,0-3.9-0.4-5.5-1.2s-2.8-1.8-3.8-3.1c-1-1.3-1.8-2.7-2.3-4.4s-0.7-3.3-0.7-5.1
		c0-1.7,0.3-3.4,0.8-5.1c0.5-1.7,1.3-3.1,2.3-4.4c1-1.3,2.3-2.3,3.8-3.1c1.5-0.8,3.3-1.2,5.4-1.2c3.8,0.1,6.8,1.8,9,5.2
		c0.5-1.6,1.3-2.8,2.5-3.6c1.2-0.8,2.4-1.2,3.6-1.2c0.8,0,1.6,0.1,2.4,0.4c0.8,0.3,1.5,0.7,2.2,1.2c0.7,0.5,1.3,1.1,1.8,1.8
		c0.5,0.7,1,1.5,1.3,2.4v-12.7h-39.9v-4.9h52.1v4.9h-7.4V754h-4.9v-26.1c-0.5-2.2-1-3.8-1.5-4.9c-0.5-1.1-1.2-2.1-1.9-2.9
		c-0.8-0.9-1.6-1.5-2.4-1.8c-0.8-0.3-1.4-0.5-1.8-0.5c-0.6,0-1.2,0.2-1.6,0.5c-0.4,0.4-0.8,0.8-1.1,1.4c-0.3,0.5-0.5,1.2-0.6,1.8
		c-0.1,0.7-0.1,1.6-0.1,2.7c0,1.1,0.1,1.8,0.1,2.1l-4,0.8c0-1.1-0.2-2.4-0.6-3.9c-0.4-1.5-0.9-2.6-1.6-3.3c-0.7-0.8-1.5-1.4-2.4-1.8
		c-0.9-0.5-1.9-0.7-3-0.7c-1.3,0-2.4,0.3-3.4,0.8c-1,0.5-1.7,1.2-2.4,2c-0.6,0.8-1.1,1.8-1.4,2.9c-0.3,1.1-0.5,2.2-0.5,3.3
		c0,1.2,0.2,2.3,0.5,3.4c0.3,1.1,0.8,2.1,1.5,3c0.7,0.9,1.5,1.5,2.5,2.1c1,0.5,2.2,0.8,3.5,0.8c0.2,0,0.4,0,0.6,0
		c0.2,0,0.4,0,0.6-0.1l-1.6,4.5L1241.9,740z"/>
	<path id="path3827" d="M1289.2,738.9c0,1.7,0.2,3,0.8,3.8c0.5,0.8,1.2,1.3,2.1,1.3c1.2,0,2.5-0.3,3.7-0.9c1.2-0.6,2.4-1.3,3.5-2.3
		c1.1-1,2.1-2.1,3.1-3.4c1-1.3,1.8-2.7,2.5-4.1c0.7-1.5,1.3-3,1.7-4.5c0.4-1.5,0.6-3,0.6-4.5c0-2.3-0.9-3.4-2.8-3.4
		c-0.9,0-2.1,0.5-3.7,1.5l-2.8-3.2c2.4-1.9,4.6-2.9,6.7-2.9c1,0,2,0.2,2.9,0.6c0.9,0.4,1.7,1,2.4,1.7c0.7,0.7,1.2,1.6,1.6,2.6
		c0.4,1,0.6,2.2,0.6,3.4c0,1.8-0.3,3.6-0.8,5.5c-0.5,1.9-1.2,3.7-2.2,5.5c-0.9,1.8-2,3.5-3.2,5.1c-1.3,1.6-2.6,3-4.1,4.2
		c-1.5,1.2-3,2.1-4.6,2.8c-1.6,0.7-3.2,1-4.9,1c-1.2,0-2.3-0.2-3.3-0.7c-1-0.5-1.8-1.1-2.5-2s-1.2-1.9-1.5-3.1s-0.5-2.5-0.5-3.9v-33
		h-9.1v-4.9h32.5c0.1-0.5,0.2-0.9,0.3-1.3c0.1-0.4,0.1-0.8,0.1-1.2c0-1.7-0.7-2.9-2.2-3.7c-1.4-0.8-3.6-1.2-6.4-1.2l-14.6,1.1
		c-1.6,0-3.1-0.3-4.5-0.8c-1.4-0.5-2.6-1.2-3.7-2.1c-1-0.9-1.9-2-2.5-3.2c-0.6-1.3-0.9-2.7-0.9-4.2c0-1.9,1-4.2,3.1-6.8l4,2.8
		c-1.5,2-2.3,3.7-2.3,5.2c0,2.9,3,4.4,9.1,4.4l14.5-1.1c1.7,0,3.2,0.3,4.6,0.9c1.4,0.6,2.6,1.4,3.5,2.4c1,1,1.7,2.3,2.3,3.7
		c0.5,1.4,0.8,3,0.8,4.7v0.5h4.5v4.9h-28.4V738.9z"/>
</g>
<g id="text3552">
	<path id="path3847" d="M240.7,721.9c-0.7,0.2-1.5,0.4-2.6,0.8c-1,0.4-2.2,0.9-3.4,1.4c-1.2,0.5-2.4,1.1-3.7,1.8
		c-1.3,0.6-2.5,1.3-3.6,1.9c-1.1,0.6-2.2,1.3-3.1,1.8c-0.9,0.6-1.6,1.1-2.1,1.6c0.8,0.1,1.8,0.4,2.9,0.8c1.1,0.4,2.3,1,3.6,1.7
		c1.3,0.7,2.5,1.5,3.8,2.4c1.3,0.9,2.4,1.8,3.5,2.7c1.1,0.9,2.1,1.9,2.9,2.8c0.8,0.9,1.4,1.8,1.7,2.5L240.7,721.9z M245.5,761h-4.9
		v-8.4c-0.3-1-0.8-2-1.7-3.2c-0.8-1.2-1.8-2.4-3-3.7c-1.2-1.3-2.5-2.5-4-3.7c-1.4-1.2-2.9-2.3-4.4-3.3c-1.5-1-3-1.7-4.4-2.3
		c-1.4-0.6-2.8-0.9-3.9-0.9c-0.3,0-0.5,0-0.7,0c-0.2,0-0.4,0.1-0.6,0.1l-3.1-5.1c7.9-6.1,16.6-10.5,25.9-13.3v-4.1h-30.5v-4.9h42.2
		v4.9h-6.9L245.5,761z M227.8,746.7c1.5,0,2.8,0.5,3.8,1.5c1,1,1.5,2.3,1.5,3.8c0,1.6-0.5,2.9-1.5,3.8c-1,1-2.3,1.5-3.8,1.5
		c-1.6,0-2.8-0.5-3.8-1.5c-1-1-1.5-2.3-1.5-3.8c0-1.6,0.5-2.8,1.5-3.8C225,747.2,226.3,746.7,227.8,746.7z"/>
	<path id="path3849" d="M247.4,708.2h6.8c0.5,0.3,0.9,0.6,1.3,0.9c0.4,0.3,0.8,0.6,1.2,1c0.4,0.4,0.8,0.9,1.3,1.4
		c0.5,0.5,1,1.2,1.6,2v-13.1h4.9v7.8h8.4v4.9h-8.4V761h-4.9v-40.9c-0.6-1.7-1.5-3.1-2.7-4.3c-1.2-1.2-2.6-2.1-4.2-2.6h-5.2V708.2z"
		/>
	<path id="path3851" d="M299.3,712.9c0.8,1.9,1.6,3.4,2.6,4.6c1,1.2,2.1,2.1,3.4,2.8c1.2,0.7,2.6,1.1,4.1,1.3c1.5,0.2,3,0.3,4.7,0.3
		c1,0,2,0,3.1-0.1c1.1,0,2.5-0.1,4.3-0.3l2.4,3.1c-0.7,2.1-1.3,4-1.9,5.8c-0.6,1.8-1.1,3.5-1.5,5.1c-0.4,1.6-0.7,3.2-0.9,4.8
		c-0.2,1.5-0.3,3.1-0.3,4.7c0,2.1,0.2,4.4,0.6,6.7c0.4,2.3,1.1,5,2.1,8l-4.5,1.4c-1-3.1-1.7-6-2.2-8.9c-0.5-2.9-0.8-5.7-0.8-8.5
		c0-2.9,0.2-5.7,0.7-8.4c0.5-2.7,1.3-5.6,2.6-8.7c-2.6,0-4.9-0.1-6.8-0.2c-2-0.1-3.7-0.4-5.1-0.7c-1.4-0.3-2.7-0.8-3.7-1.3
		c-1-0.5-1.9-1.2-2.7-2c-0.8-0.8-1.5-1.7-2.1-2.8c-0.6-1-1.3-2.3-2-3.7c-1,0.5-1.8,1.1-2.5,1.9c-0.7,0.8-1.4,1.7-1.9,2.6
		c-0.5,0.9-0.9,1.9-1.2,3c-0.3,1.1-0.4,2.1-0.4,3.2c0,0.8,0.1,1.5,0.4,2.2c0.3,0.7,0.6,1.4,1.1,1.9c0.5,0.5,1,1,1.6,1.3
		c0.6,0.3,1.3,0.5,2,0.5c2.6,0,4.6-1.1,5.8-3.2l3.5-0.7c1.4,1.2,2.5,2.2,3.3,3.1c0.9,0.9,1.5,1.7,2,2.4c0.5,0.8,0.8,1.5,0.9,2.3
		c0.2,0.8,0.2,1.7,0.2,2.8c0,1.8-0.4,3.5-1.2,5.2c-0.8,1.7-1.8,3.2-3.1,4.4c-1.3,1.3-2.8,2.3-4.5,3.1c-1.7,0.8-3.4,1.1-5.3,1.1
		c-4.6,0-8.8-2.1-12.4-6.4c-1.4-1.6-2.6-3.2-3.8-4.9s-2.1-3.6-2.9-5.8c-0.8-2.2-1.4-4.8-1.8-7.7c-0.4-3-0.6-6.5-0.6-10.7h4.9
		c0,1.1,0,2.2,0,3.2c0,1,0,1.9,0.1,2.8c0,0.9,0.1,1.8,0.2,2.7c0.1,0.9,0.2,1.8,0.3,2.8c0.3,2.5,1,5,2.1,7.3c1.1,2.3,2.3,4.4,3.8,6.1
		c1.5,1.8,3.1,3.2,4.9,4.2c1.8,1,3.5,1.6,5.2,1.6c1.1,0,2.3-0.2,3.4-0.7c1.1-0.5,2.1-1.1,3-2c0.9-0.8,1.6-1.8,2.1-2.8
		c0.5-1.1,0.8-2.2,0.8-3.3c0-2.3-0.9-4.2-2.7-5.7c-1.2,1.2-2.5,2.1-3.8,2.7c-1.4,0.6-2.9,1-4.6,1c-1.4,0-2.7-0.3-3.9-0.9
		c-1.2-0.6-2.2-1.4-3.1-2.4c-0.9-1-1.6-2.1-2.1-3.4c-0.5-1.3-0.8-2.6-0.8-4c0-6.1,2.4-10.7,7.1-13.8h-21.6v-4.9h59.9v4.9h-30.3
		L299.3,712.9z"/>
	<path id="path3853" d="M335.7,728c0.4,0.4,1,0.8,1.6,1.2c0.6,0.4,1.4,0.6,2.2,0.6c0.6-0.1,1.2-0.4,1.8-0.8c0.6-0.4,1-0.9,1.4-1.5
		c0.4-0.6,0.7-1.2,0.9-1.9c0.2-0.7,0.3-1.4,0.3-2c0-1.6-0.3-3.1-1-4.3c-0.6-1.3-1.5-2.4-2.6-3.2c-1.1-0.9-2.4-1.6-3.8-2.1
		c-1.4-0.5-2.9-0.7-4.5-0.7c-1.3,0-2.6,0.2-3.9,0.6v-5.3c0.7-0.1,1.4-0.1,2-0.2c0.6,0,1.3,0,2,0c1.8,0,3.5,0.2,5.2,0.5
		c1.7,0.3,3.2,0.9,4.5,1.7c1.4,0.8,2.5,1.8,3.5,3.1c0.9,1.3,1.6,2.9,1.9,4.9c0.8-3,2-5.2,3.6-6.7c1.6-1.5,3.7-2.2,6.2-2.2
		c1.3,0.1,2.5,0.5,3.4,1c1,0.5,1.8,1.2,2.6,1.9c0.8,0.8,1.5,1.7,2.2,2.6c0.7,1,1.5,2.1,2.4,3.2v-17.7h4.9v7.8h7.6v4.9h-7.6V761h-4.9
		v-33.1c0-0.5-0.2-1.3-0.5-2.1c-0.3-0.9-0.7-1.8-1.3-2.8c-0.6-1-1.2-2-1.9-3.1c-0.7-1-1.5-2-2.3-2.8c-0.8-0.8-1.7-1.5-2.5-2
		c-0.9-0.5-1.7-0.8-2.5-0.8c-1.6,0-2.8,0.8-3.8,2.3c-1,1.5-1.5,3.9-1.5,7.2c0,0.7,0.2,1.4,0.5,2.1c0.3,0.7,0.8,1.2,1.3,1.7
		c0.5,0.5,1.2,0.9,1.8,1.1c0.7,0.3,1.4,0.4,2.2,0.4c1,0,2.1-0.4,3-1.1l2.3,4.1c-1,0.7-1.9,1.2-2.9,1.5c-0.9,0.3-1.8,0.4-2.6,0.4
		c-1.9,0-3.6-0.4-5.1-1.3c-1.5-0.9-2.8-2.3-3.8-4.2c-0.5,1-1,1.8-1.7,2.6c-0.7,0.8-1.4,1.4-2.2,1.9c-0.8,0.5-1.6,1-2.4,1.2
		c-0.8,0.3-1.6,0.4-2.4,0.4c-1.1,0-2.1-0.2-3.1-0.6c-1-0.4-2-1.1-3-2.2L335.7,728z"/>
	<path id="path3855" d="M374.4,708.2h6.8c0.5,0.3,0.9,0.6,1.3,0.9c0.4,0.3,0.8,0.6,1.2,1c0.4,0.4,0.8,0.9,1.3,1.4
		c0.5,0.5,1,1.2,1.6,2v-13.1h4.9v7.8h8.4v4.9h-8.4V761h-4.9v-40.9c-0.6-1.7-1.5-3.1-2.7-4.3c-1.2-1.2-2.6-2.1-4.2-2.6h-5.2V708.2z"
		/>
	<path id="path3857" d="M396.4,713.1v-4.9h45.4v4.9H396.4z M441.2,766c-5.4-5.9-11.1-10.9-17.1-14.9c-6-4-12.5-7.2-19.4-9.5v-5
		c4.5,1.8,8.7,2.7,12.4,2.7c1.7,0,3.4-0.3,4.9-0.9c1.6-0.6,2.9-1.4,4.1-2.4c1.2-1,2.1-2.2,2.8-3.5c0.7-1.3,1.1-2.7,1.1-4.2
		c0-1.1-0.4-2.2-1.1-3.3c-0.7-1.1-1.6-2.1-2.7-2.9c-1.1-0.9-2.2-1.5-3.5-2.1c-1.3-0.5-2.4-0.8-3.5-0.8c-1,0-2,0.2-3,0.5
		c-1,0.3-2,0.8-2.8,1.3c-0.9,0.6-1.6,1.3-2.1,2.1c-0.6,0.8-0.8,1.7-0.8,2.8c0,0.6,0.2,1.2,0.7,1.9c0.5,0.6,1.1,1.3,1.9,2l-2.9,4
		c-3-1.9-4.5-4.6-4.5-8.2c0-1.4,0.5-2.8,1.4-4.1c0.9-1.3,2.1-2.5,3.5-3.6c1.4-1,2.9-1.9,4.5-2.5c1.6-0.6,3.1-0.9,4.5-0.9
		c1.7,0,3.4,0.4,5.2,1.1c1.8,0.8,3.5,1.8,5,3.1c1.5,1.3,2.7,2.8,3.7,4.5c1,1.7,1.5,3.4,1.5,5.2c0,7-4.7,12.1-14.1,15.2
		c5.3,2.9,9.9,5.9,13.9,9.1c4,3.2,7.3,6.5,10.1,10.1L441.2,766z"/>
	<path id="path3859" d="M438.7,708.2h9.4c-0.7-2.9-1.8-5.5-3.5-7.8c-1.7-2.3-3.6-4.3-5.9-5.9c-2.3-1.6-4.9-2.9-7.7-3.8
		c-2.8-0.9-5.6-1.3-8.5-1.3c-1.4,0-2.8,0.1-4.3,0.4c-1.5,0.3-2.9,0.7-4.1,1.2c-1.3,0.5-2.3,1.2-3.1,1.9c-0.8,0.7-1.2,1.5-1.2,2.3
		c0.5,0.2,1.6,0.3,3.2,0.5c1.6,0.1,3.8,0.3,6.5,0.4c3.1,0.1,5.7,0.4,7.9,0.8c2.1,0.4,3.9,1,5.2,1.7c1.3,0.8,2.3,1.7,2.8,2.8
		c0.6,1.1,0.9,2.4,0.9,4c0,1.3-0.8,3.3-2.3,5.9l-4.2-1.6c1.3-1.3,2.1-2.6,2.4-3.9c-0.2-0.9-0.5-1.6-1-2.3c-0.5-0.6-1.2-1.1-2.2-1.5
		c-1-0.4-2.3-0.7-4-0.8c-1.7-0.2-3.8-0.3-6.4-0.3c-4.6,0-8-0.4-10.2-1.4c-2.2-0.9-3.4-2.5-3.4-4.7c0-1.4,0.5-2.7,1.5-4
		c1-1.2,2.3-2.3,4-3.3c1.7-0.9,3.5-1.7,5.6-2.2c2.1-0.5,4.2-0.8,6.3-0.8c3.9,0,7.4,0.5,10.7,1.6c3.2,1,6.2,2.6,8.8,4.6
		c2.6,2,4.8,4.5,6.7,7.4c1.9,2.9,3.4,6.3,4.5,10.1h7.9v4.9h-7.9V761H448v-47.9h-9.4V708.2z"/>
</g>
<g id="text3556">
	<path id="path3830" d="M643.2,610.2c1.8,0.6,3.6,1.7,5.2,3.2c1.6,1.5,3.1,3.5,4.5,5.9v-21.1h-22.3c1.8,0.6,3.4,1.3,4.7,1.9
		c1.3,0.7,2.4,1.5,3.4,2.4c1,0.9,1.8,2,2.5,3.2C642,607.1,642.6,608.5,643.2,610.2z M657.8,598.2v47.9H653v-16.3
		c0-0.6-0.2-1.5-0.6-2.5c-0.4-1-0.9-2.1-1.6-3.2c-0.7-1.1-1.4-2.3-2.3-3.4c-0.9-1.1-1.8-2.1-2.7-3c-0.9-0.9-1.8-1.7-2.7-2.2
		c-0.9-0.6-1.7-0.9-2.5-0.9c-3.4,0-6,0.9-8,2.7c-2,1.8-2.9,4.4-2.9,7.7c0,5,2.7,8,8,9.1l-2.2,4.1h-0.4c-1.4,0-2.7-0.4-3.9-1.3
		c-1.2-0.9-2.3-1.9-3.3-3.2s-1.7-2.7-2.3-4.2s-0.8-2.9-0.8-4.2c0-8.6,4.4-13.8,13.1-15.6c-0.4-1.1-0.9-2-1.5-2.8
		c-0.6-0.8-1.4-1.5-2.5-2.1c-1.1-0.6-2.5-1.2-4.2-1.7c-1.7-0.5-3.9-1.1-6.5-1.7v-3.2h-6.2v-4.9h47.8v4.9H657.8z"/>
	<path id="path3832" d="M679.8,598.2c1,0.6,1.9,1.3,2.8,1.9c0.9,0.6,1.8,1.3,2.7,2c0.9,0.7,1.7,1.5,2.4,2.3c0.8,0.8,1.5,1.8,2.1,2.8
		c-2.9,2.3-5.5,4.4-7.7,6.4c-2.3,2-4.2,3.8-5.9,5.4c2.6,0.8,4.8,1.6,6.6,2.3s3.4,1.6,4.9,2.5c1.5,1,3,2.1,4.4,3.5c1.4,1.3,3.1,3,5,5
		v-34.2H679.8z M662.8,593.4h46v4.9h-7v47.9H697v-7.2c-1.1-1.8-2.5-3.5-4.3-5.2c-1.8-1.7-3.7-3.2-5.8-4.5c-2.1-1.3-4.3-2.5-6.6-3.4
		c-2.3-0.9-4.5-1.6-6.5-1.9l-4.3-5.3c1.6-1.7,3.6-3.5,5.9-5.4c2.3-2,4.9-4,7.9-6.3c-0.1-0.2-0.4-0.5-1-1c-0.6-0.5-1.3-1.1-2.1-1.7
		c-0.8-0.6-1.8-1.3-2.8-2c-1-0.7-2-1.3-2.9-1.9c-0.9-0.6-1.7-1.1-2.4-1.5c-0.7-0.4-1.2-0.6-1.4-0.6h-8V593.4z M683.8,635.5
		c1.5,0,2.8,0.5,3.8,1.5c1,1,1.5,2.3,1.5,3.8s-0.5,2.9-1.5,3.8s-2.3,1.5-3.8,1.5c-1.6,0-2.8-0.5-3.8-1.5c-1-1-1.5-2.3-1.5-3.8
		s0.5-2.8,1.5-3.8C680.9,636,682.2,635.5,683.8,635.5z"/>
	<path id="path3834" d="M734.7,610.2c1.8,0.6,3.6,1.7,5.2,3.2c1.6,1.5,3.1,3.5,4.5,5.9v-21.1h-22.3c1.8,0.6,3.4,1.3,4.7,1.9
		c1.3,0.7,2.4,1.5,3.4,2.4c1,0.9,1.8,2,2.5,3.2C733.5,607.1,734.1,608.5,734.7,610.2z M749.3,598.2v47.9h-4.9v-16.3
		c0-0.6-0.2-1.5-0.6-2.5c-0.4-1-0.9-2.1-1.6-3.2c-0.7-1.1-1.4-2.3-2.3-3.4c-0.9-1.1-1.8-2.1-2.7-3c-0.9-0.9-1.8-1.7-2.7-2.2
		c-0.9-0.6-1.7-0.9-2.5-0.9c-3.4,0-6,0.9-8,2.7c-2,1.8-2.9,4.4-2.9,7.7c0,5,2.7,8,8,9.1l-2.2,4.1h-0.4c-1.4,0-2.7-0.4-3.9-1.3
		c-1.2-0.9-2.3-1.9-3.3-3.2s-1.7-2.7-2.3-4.2s-0.8-2.9-0.8-4.2c0-8.6,4.4-13.8,13.1-15.6c-0.4-1.1-0.9-2-1.5-2.8
		c-0.6-0.8-1.4-1.5-2.5-2.1c-1.1-0.6-2.5-1.2-4.2-1.7c-1.7-0.5-3.9-1.1-6.5-1.7v-3.2h-6.2v-4.9h47.8v4.9H749.3z"/>
	<path id="path3836" d="M767.3,633.7c-1.7-1.2-3-2.7-3.8-4.5c-0.8-1.8-1.2-3.6-1.2-5.6c0-1.9,0.3-3.8,1-5.7c0.7-1.9,1.6-3.6,2.8-5.1
		c1.2-1.5,2.7-2.7,4.4-3.6c1.7-0.9,3.6-1.4,5.7-1.4c3.1,0,5.8,0.8,8.2,2.4c2.4,1.6,4.3,4,5.9,7.2v-19.2h-36.2v-4.9h48.6v4.9h-7.6
		v47.9h-4.9v-18.2c-0.3-1.5-0.9-3.1-1.7-4.9c-0.8-1.8-1.7-3.4-2.9-4.9c-1.1-1.5-2.4-2.8-3.9-3.8c-1.5-1-3-1.5-4.7-1.5
		c-1.5,0-2.8,0.3-4.1,0.9c-1.2,0.6-2.3,1.3-3.1,2.3c-0.9,0.9-1.6,2-2,3.2c-0.5,1.2-0.7,2.5-0.7,3.7c0,1.3,0.3,2.6,0.8,3.8
		c0.5,1.2,1.3,2.4,2.4,3.4L767.3,633.7z"/>
	<path id="path3838" d="M809,646.1v-47.9h-8.2v-4.9h6.9l-4-5.5c0.3-2.2,1.1-4.3,2.3-6.3c1.2-2,2.7-3.7,4.5-5.2
		c1.8-1.5,3.8-2.7,6-3.5c2.2-0.9,4.4-1.3,6.7-1.3c5.6,0,11,1.4,16.3,4.3c1.8,1,3.9,2.3,6.2,4c2.3,1.7,4.9,3.7,7.7,6.1l-3.3,3.6
		c-4.6-4.4-9.1-7.7-13.6-9.9c-4.5-2.2-8.8-3.2-13.1-3.2c-1.6,0-3.3,0.3-4.9,0.9c-1.7,0.6-3.2,1.5-4.6,2.6c-1.4,1.1-2.6,2.3-3.5,3.8
		c-1,1.4-1.5,2.8-1.5,4.1l4.4,5.6h7.6v4.9h-7v47.9H809z"/>
	<path id="path3840" d="M860.1,623c-0.2-0.7-0.7-1.6-1.3-2.7c-0.6-1.1-1.4-2.2-2.2-3.3c-0.8-1.1-1.7-2-2.6-2.8
		c-0.9-0.8-1.7-1.1-2.5-1.1c-0.9,0-1.8,0.4-2.5,1.2c-0.8,0.8-1.5,1.8-2.3,2.9c-0.7,1.2-1.5,2.4-2.2,3.8c-0.7,1.4-1.5,2.6-2.4,3.8
		c-0.9,1.2-1.8,2.1-2.9,2.9c-1.1,0.8-2.3,1.2-3.7,1.2c-1.6,0-3.2-0.8-5-2.5s-3.7-4.2-5.7-7.5l4.2-2.3c0.3,0.6,0.6,1.3,1,2.2
		s0.9,1.7,1.4,2.5s1.1,1.5,1.7,2c0.6,0.6,1.3,0.8,2.1,0.8c0.6,0,1.3-0.3,2-1c0.7-0.7,1.4-1.4,2-2.4c0.6-0.9,1.1-1.8,1.6-2.8
		c0.4-0.9,0.7-1.7,0.7-2.3c-0.3-2.1-0.7-4-1.2-5.5c-0.5-1.5-1.3-2.8-2.5-3.8c-1.1-1-2.7-1.9-4.7-2.7c-2-0.8-4.6-1.5-7.9-2.2v-3.2
		h-5.3v-4.9H872v4.9h-7v47.9h-4.9V623z M832.8,598.2c1.8,0.7,3.4,1.4,4.7,2.2c1.3,0.7,2.4,1.5,3.4,2.4c1,0.9,1.8,2,2.5,3.3
		c0.7,1.3,1.4,2.9,2.1,4.8c1.9-1.8,4-2.7,6.2-2.7c2.5,0,5.3,2.2,8.4,6.5v-16.4H832.8z"/>
	<path id="path3842" d="M886.1,613.3c-1.6,0-3-0.3-4.4-0.9c-1.3-0.6-2.5-1.4-3.5-2.3c-1-1-1.8-2.2-2.3-3.5c-0.5-1.3-0.8-2.8-0.8-4.3
		c0-2.7,0.8-4.8,2.4-6.2c1.6-1.4,3.8-2.2,6.5-2.2c1.6,0,3.1,0.3,4.4,0.8c1.4,0.5,2.6,1.3,3.6,2.2c1,1,1.8,2.1,2.4,3.4
		c0.6,1.3,0.9,2.8,0.9,4.3c0,2.8-0.8,4.9-2.5,6.4C891.2,612.6,889,613.3,886.1,613.3z M899.7,646.1l-25.9-25.3l4-4l25.8,25.1
		L899.7,646.1z M890.6,604.6c0-1.7-0.6-3.1-1.7-4.2c-1.1-1.1-2.5-1.6-4.2-1.6c-3.2,0-4.8,1.3-4.8,4c0,0.8,0.2,1.5,0.5,2.2
		c0.4,0.7,0.8,1.3,1.4,1.8c0.6,0.5,1.2,0.9,1.9,1.2c0.7,0.3,1.5,0.4,2.3,0.4C889.1,608.4,890.6,607.1,890.6,604.6z"/>
	<path id="path3844" d="M898.3,598.2v-4.9h45.4v4.9H898.3z M943.1,651.2c-5.4-5.9-11.1-10.9-17.1-14.9c-6-4-12.5-7.2-19.4-9.5v-5
		c4.5,1.8,8.7,2.7,12.4,2.7c1.7,0,3.4-0.3,4.9-0.9c1.6-0.6,2.9-1.4,4.1-2.4c1.2-1,2.1-2.2,2.8-3.5c0.7-1.3,1.1-2.7,1.1-4.2
		c0-1.1-0.4-2.2-1.1-3.3c-0.7-1.1-1.6-2.1-2.7-2.9c-1.1-0.9-2.2-1.5-3.5-2.1c-1.3-0.5-2.4-0.8-3.5-0.8c-1,0-2,0.2-3,0.5
		c-1,0.3-2,0.8-2.8,1.3c-0.9,0.6-1.6,1.3-2.1,2.1c-0.6,0.8-0.8,1.7-0.8,2.8c0,0.6,0.2,1.2,0.7,1.9c0.5,0.6,1.1,1.3,1.9,2l-2.9,4
		c-3-1.9-4.5-4.6-4.5-8.2c0-1.4,0.5-2.8,1.4-4.1c0.9-1.3,2.1-2.5,3.5-3.6c1.4-1,2.9-1.9,4.5-2.5c1.6-0.6,3.1-0.9,4.5-0.9
		c1.7,0,3.4,0.4,5.2,1.1c1.8,0.8,3.5,1.8,5,3.1c1.5,1.3,2.7,2.8,3.7,4.5c1,1.7,1.5,3.4,1.5,5.2c0,7-4.7,12.1-14.1,15.2
		c5.3,2.9,9.9,5.9,13.9,9.1c4,3.2,7.3,6.5,10.1,10.1L943.1,651.2z"/>
</g>
</svg>
